<?xml version="1.0" encoding="UTF-8"?>
<svg width="350px" height="176px" viewBox="0 0 350 176" version="1.1" xmlns="http://www.w3.org/2000/svg" xmlns:xlink="http://www.w3.org/1999/xlink">
    <title>Group 3</title>
    <g id="Page-1" stroke="none" stroke-width="1" fill="none" fill-rule="evenodd">
        <g id="Mobile:-black" transform="translate(-13.000000, -305.000000)" fill-rule="nonzero">
            <g id="Group-3" transform="translate(13.000000, 305.000000)">
                <g id="bolle-gevel-copy-2" transform="translate(52.000000, 18.000000)">
                    <path d="M73.5432626,109.281096 L73.5432626,68.0554634 L75,68.0554634 L75,66.9213636 L73.5432626,66.9213636 L73.5432626,48.0428671 L70.5795554,48.0428671 C71.9858779,41.991353 69.0961675,35.75705 63.5847043,32.9520744 L63.5847043,30.4248326 L61.0228557,30.4248326 C54.8254427,27.3826652 47.4601281,15.6815355 46.8698983,8.96223133 C46.7640644,7.8321434 46.7525125,6.69511994 46.8353636,5.56309107 L48.370589,5.56309107 L48.370589,3.59184245 L42.8827075,3.59184245 C42.2943838,2.12478781 41.1383809,0.96159303 39.6803968,0.369609117 L39.6521412,0.369609117 C39.4002061,0.270928203 39.142235,0.188623584 38.8798192,0.123203039 L38.8076102,0.123203039 C38.6820294,0.0947715685 38.5533091,0.0694991503 38.4245887,0.0473857843 L38.4245887,0.0473857843 C38.2958684,0.0252724183 38.1640085,0.0126362091 38.0321487,-5.38713997e-14 L37.9379631,-5.38713997e-14 C37.8061032,-5.38713997e-14 37.6711039,-5.38713997e-14 37.5361045,-5.38713997e-14 L37.5361045,-5.38713997e-14 C37.4011051,-5.38713997e-14 37.2661057,-5.38713997e-14 37.1342459,0.0157952614 L37.0400603,0.0157952614 C36.9082004,0.0157952614 36.7763406,0.0410676797 36.6476202,0.0631810457 L36.6476202,0.0631810457 C36.5188999,0.0852944117 36.3933191,0.11056683 36.2677383,0.138998301 L36.1955293,0.138998301 C35.932088,0.20442264 35.6730727,0.286725829 35.4200678,0.385404379 L35.3918121,0.385404379 C33.9346072,0.9774769 32.7796232,2.14078699 32.192641,3.60763771 L26.6859224,3.60763771 L26.6859224,5.58520444 L28.2180083,5.58520444 C28.3039933,6.71713129 28.2924386,7.85442322 28.1834736,8.9843447 C27.5932438,15.6878536 20.2279292,27.3889833 14.0305161,30.4311507 L11.4655281,30.4311507 L11.4655281,32.9583925 C5.96010725,35.7692536 3.07271894,41.9985468 4.47067688,48.0491852 L1.50696974,48.0491852 L1.50696974,66.9213636 L-4.46152666e-15,66.9213636 L-4.46152666e-15,68.0712586 L1.50696974,68.0712586 L1.50696974,109.296891 L-4.46152666e-15,109.296891 L-4.46152666e-15,109.982405 L0.565113651,109.982405 L0.565113651,158 L74.4348863,158 L74.4348863,109.982405 L75,109.982405 L75,109.296891 L73.5432626,109.281096 Z" id="Path" fill="#E5E5E5"></path>
                    <rect id="Rectangle" fill="#FFFFFF" x="5.73904307" y="120.372528" width="13.9677257" height="5.61995401"></rect>
                    <rect id="Rectangle" fill="#E5E5E5" x="5.73904307" y="122.86818" width="13.9677257" height="1"></rect>
                    <rect id="Rectangle" fill="#E5E5E5" x="9.96483737" y="120.372528" width="1" height="5.61995401"></rect>
                    <rect id="Rectangle" fill="#E5E5E5" x="14.8499309" y="120.372528" width="1" height="5.61995401"></rect>
                    <rect id="Rectangle" fill="#FFFFFF" x="21.7662941" y="120.372528" width="13.9677257" height="5.61995401"></rect>
                    <rect id="Rectangle" fill="#E5E5E5" x="21.7662941" y="122.86818" width="13.9677257" height="1"></rect>
                    <rect id="Rectangle" fill="#E5E5E5" x="25.9952279" y="120.372528" width="1" height="5.61995401"></rect>
                    <rect id="Rectangle" fill="#E5E5E5" x="30.877182" y="120.372528" width="1" height="5.61995401"></rect>
                    <rect id="Rectangle" fill="#FFFFFF" x="37.7966847" y="120.372528" width="13.9677257" height="5.61995401"></rect>
                    <rect id="Rectangle" fill="#E5E5E5" x="37.7966847" y="122.86818" width="13.9677257" height="1"></rect>
                    <rect id="Rectangle" fill="#E5E5E5" x="42.022479" y="120.372528" width="1" height="5.61995401"></rect>
                    <rect id="Rectangle" fill="#E5E5E5" x="46.9075725" y="120.372528" width="1" height="5.61995401"></rect>
                    <rect id="Rectangle" fill="#FFFFFF" x="53.8239357" y="120.372528" width="13.9677257" height="5.61995401"></rect>
                    <polygon id="Path" fill="#FFFFFF" points="67.4400352 156.098251 56.7154339 155.039968 56.7154339 130.449905 67.7916614 130.449905"></polygon>
                    <rect id="Rectangle" fill="#E5E5E5" x="53.8239357" y="122.86818" width="13.9677257" height="1"></rect>
                    <rect id="Rectangle" fill="#E5E5E5" x="58.0528695" y="120.372528" width="1" height="5.61995401"></rect>
                    <rect id="Rectangle" fill="#E5E5E5" x="62.9348236" y="120.372528" width="1" height="5.61995401"></rect>
                    <polygon id="Path" fill="#FFFFFF" points="55.9336933 155.349555 51.3813889 156.038229 51.3813889 130.449905 55.9336933 130.449905"></polygon>
                    <rect id="Rectangle" fill="#FFFFFF" x="6.10950647" y="130.449905" width="44.195027" height="21.4847146"></rect>
                    <rect id="Rectangle" fill="#FFFFFF" x="32.6070576" y="24.8080376" width="9.7827452" height="15.5520144"></rect>
                    <rect id="Rectangle" fill="#E5E5E5" x="37.1876177" y="24.893332" width="1" height="15.5520144"></rect>
                    <rect id="Rectangle" fill="#E5E5E5" x="32.6070576" y="34.8095971" width="9.7827452" height="1"></rect>
                    <rect id="Rectangle" fill="#E5E5E5" x="32.6070576" y="29.8972708" width="9.7827452" height="1"></rect>
                    <rect id="Rectangle" fill="#FFFFFF" x="25.229185" y="51.6663001" width="5.54439282" height="15.5741278"></rect>
                    <rect id="Rectangle" fill="#E5E5E5" x="25.229185" y="61.5952014" width="5.54439282" height="1"></rect>
                    <rect id="Rectangle" fill="#E5E5E5" x="25.229185" y="56.6797161" width="5.54439282" height="1"></rect>
                    <rect id="Rectangle" fill="#FFFFFF" x="43.9344468" y="51.6663001" width="5.54439282" height="15.5741278"></rect>
                    <rect id="Rectangle" fill="#E5E5E5" x="43.9344468" y="61.5952014" width="5.54439282" height="1"></rect>
                    <rect id="Rectangle" fill="#E5E5E5" x="43.9344468" y="56.6797161" width="5.54439282" height="1"></rect>
                    <rect id="Rectangle" fill="#FFFFFF" x="32.5976391" y="51.6663001" width="9.7827452" height="16.5723883"></rect>
                    <rect id="Rectangle" fill="#E5E5E5" x="32.5976391" y="62.2522843" width="9.7827452" height="1"></rect>
                    <rect id="Rectangle" fill="#E5E5E5" x="32.5976391" y="57.0240528" width="9.7827452" height="1"></rect>
                    <rect id="Rectangle" fill="#E5E5E5" x="37.1750597" y="51.6663001" width="1" height="16.5723883"></rect>
                    <rect id="Rectangle" fill="#FFFFFF" x="15.9613211" y="78.9605118" width="16.6457365" height="22.6725182"></rect>
                    <rect id="Rectangle" fill="#E5E5E5" x="15.9613211" y="93.5584925" width="16.6457365" height="1"></rect>
                    <rect id="Rectangle" fill="#E5E5E5" x="15.9613211" y="86.4063981" width="16.6457365" height="1"></rect>
                    <rect id="Rectangle" fill="#E5E5E5" x="21.2733894" y="78.9605118" width="1" height="22.6725182"></rect>
                    <rect id="Rectangle" fill="#E5E5E5" x="26.5697601" y="78.9605118" width="1" height="22.6725182"></rect>
                    <rect id="Rectangle" fill="#FFFFFF" x="41.6174808" y="78.9605118" width="16.6457365" height="22.6725182"></rect>
                    <rect id="Rectangle" fill="#E5E5E5" x="41.6174808" y="93.5584925" width="16.6457365" height="1"></rect>
                    <rect id="Rectangle" fill="#E5E5E5" x="41.6174808" y="86.4063981" width="16.6457365" height="1"></rect>
                    <rect id="Rectangle" fill="#E5E5E5" x="46.9295492" y="78.9605118" width="1" height="22.6725182"></rect>
                    <rect id="Rectangle" fill="#E5E5E5" x="52.5398719" y="78.9605118" width="1" height="22.6725182"></rect>
                    <rect id="Rectangle" fill="#FFFFFF" x="1.04546025" y="109.96661" width="72.9090795" height="2.74521644"></rect>
                </g>
                <g id="bollengevel" transform="translate(180.000000, 33.000000)">
                    <rect id="Rectangle" fill="#E5E5E5" x="1.21388414" y="39.2699115" width="49.5722317" height="102.730088"></rect>
                    <path d="M52,38.4845133 L50.1251528,37.2278761 C51.2900924,36.4969519 51.8055277,35.0782023 51.3772193,33.7815291 C50.9489109,32.4848558 49.6858704,31.6402836 48.309112,31.7299415 C46.9323537,31.8195994 45.7922851,32.8206681 45.5397213,34.1616814 L45.4857003,34.1239823 C42.7681877,33.2322439 40.679727,31.0590575 39.9179258,28.3303317 C39.1561245,25.6016059 39.8213953,22.6770122 41.691518,20.5334513 L41.7105842,20.5114602 L41.7105842,15.7456637 L43.3216817,14.4513274 L38.0943535,14.4513274 C38.3316032,13.2964945 38.0321817,12.097355 37.2785963,11.1843391 C36.5250109,10.2713232 35.3967967,9.74079251 34.2048399,9.73893805 C33.8414448,9.7392703 33.4798958,9.79003102 33.1307749,9.88973451 C33.6629094,8.75382695 33.4206189,7.4102516 32.5242081,6.52613515 C31.6277974,5.64201871 30.2682041,5.40568021 29.1205084,5.93446903 C29.5744988,5.30204256 29.8177579,4.54541818 29.8164263,3.7699115 C29.8164263,1.68784687 28.1091768,0 26.0031777,0 L26.0031777,0 C23.8971787,0 22.1899291,1.68784687 22.1899291,3.7699115 C22.1867398,4.54473349 22.4277578,5.30129638 22.8794916,5.93446903 C21.7317959,5.40568021 20.3722026,5.64201871 19.4757919,6.52613515 C18.5793811,7.4102516 18.3370906,8.75382695 18.8692251,9.88973451 C18.5201042,9.79003102 18.1585552,9.7392703 17.7951601,9.73893805 C16.6032033,9.74079251 15.4749891,10.2713232 14.7214037,11.1843391 C13.9678183,12.097355 13.6683968,13.2964945 13.9056465,14.4513274 L8.67831826,14.4513274 L10.2894158,15.7330973 L10.2894158,20.5114602 L10.308482,20.5334513 C12.1800667,22.6770391 12.8462384,25.6025891 12.0843412,28.3322895 C11.322444,31.0619898 9.23297441,33.2357851 6.51429968,34.1271239 L6.46027866,34.164823 C6.20771491,32.8238097 5.06764633,31.822741 3.69088796,31.7330831 C2.31412958,31.6434252 1.05108905,32.4879974 0.622780679,33.7846707 C0.194472303,35.0813439 0.709907603,36.5000935 1.87484723,37.2310177 L0,38.4876549 L0,39.2102212 L26,39.4301327 L52,39.2102212 L52,38.4845133 Z" id="Path" fill="#E5E5E5"></path>
                    <rect id="Rectangle" fill="#FFFFFF" x="28.2943046" y="71.2199115" width="17.7951601" height="21.6141593"></rect>
                    <rect id="Rectangle" fill="#E5E5E5" x="27.9987778" y="78.3042035" width="18.5895869" height="1"></rect>
                    <rect id="Rectangle" fill="#E5E5E5" x="27.9987778" y="85.1214602" width="18.5895869" height="1"></rect>
                    <rect id="Rectangle" fill="#E5E5E5" x="34.0650208" y="70.9057522" width="1" height="22.2424779"></rect>
                    <rect id="Rectangle" fill="#E5E5E5" x="39.9978" y="71.0251327" width="1" height="21.9283186"></rect>
                    <rect id="Rectangle" fill="#FFFFFF" x="5.73258372" y="71.2199115" width="17.7951601" height="21.6141593"></rect>
                    <rect id="Rectangle" fill="#E5E5E5" x="5.59594231" y="78.3042035" width="18.4307015" height="1"></rect>
                    <rect id="Rectangle" fill="#E5E5E5" x="5.59594231" y="85.1214602" width="18.4307015" height="1"></rect>
                    <rect id="Rectangle" fill="#E5E5E5" x="11.5032999" y="70.9057522" width="1" height="22.0508407"></rect>
                    <rect id="Rectangle" fill="#E5E5E5" x="17.4360792" y="70.9057522" width="1" height="22.0508407"></rect>
                    <rect id="Rectangle" fill="#FFFFFF" x="21.2334393" y="114.039823" width="9.53312149" height="27.3318584"></rect>
                    <rect id="Rectangle" fill="#FFFFFF" x="32.6064532" y="101.473451" width="13.6641408" height="30.7876106"></rect>
                    <rect id="Rectangle" fill="#FFFFFF" x="21.2334393" y="101.473451" width="9.53312149" height="10.3672566"></rect>
                    <rect id="Rectangle" fill="#FFFFFF" x="5.73258372" y="101.473451" width="12.9618675" height="30.7876106"></rect>
                    <rect id="Rectangle" fill="#FFFFFF" x="19.9718895" y="20.420354" width="11.7575165" height="14.7654867"></rect>
                    <rect id="Rectangle" fill="#FFFFFF" x="5.73258372" y="46.8097345" width="11.1219751" height="16.9646018"></rect>
                    <rect id="Rectangle" fill="#FFFFFF" x="35.1486189" y="46.8097345" width="11.1219751" height="16.9646018"></rect>
                    <rect id="Rectangle" fill="#FFFFFF" x="19.0090442" y="46.8097345" width="13.9819115" height="16.9646018"></rect>
                    <line x1="26" y1="63.7743363" x2="26" y2="46.6840708" id="Path" fill="#FFFFFF"></line>
                    <rect id="Rectangle" fill="#E5E5E5" x="25.6822293" y="46.6840708" width="1" height="17.0902655"></rect>
                    <line x1="40.7096065" y1="63.6266814" x2="40.7096065" y2="46.7783186" id="Path" fill="#FFFFFF"></line>
                    <rect id="Rectangle" fill="#E5E5E5" x="40.3918357" y="46.7783186" width="1" height="16.8483628"></rect>
                    <line x1="11.2935713" y1="63.6266814" x2="11.2935713" y2="46.7783186" id="Path" fill="#FFFFFF"></line>
                    <rect id="Rectangle" fill="#E5E5E5" x="10.9758005" y="46.7783186" width="1" height="16.8483628"></rect>
                    <line x1="5.73258372" y1="55.2920354" x2="48.3265705" y2="55.2920354" id="Path" fill="#FFFFFF"></line>
                    <rect id="Rectangle" fill="#E5E5E5" x="5.73258372" y="54.9778761" width="42.5939868" height="1"></rect>
                    <line x1="26" y1="36.3482301" x2="26" y2="19.2579646" id="Path" fill="#FFFFFF"></line>
                    <rect id="Rectangle" fill="#E5E5E5" x="25.6822293" y="19.2579646" width="1" height="17.0902655"></rect>
                    <line x1="19.2092398" y1="27.8659292" x2="32.9909558" y2="27.8659292" id="Path" fill="#FFFFFF"></line>
                    <rect id="Rectangle" fill="#E5E5E5" x="19.2092398" y="27.5517699" width="13.781716" height="1"></rect>
                    <line x1="12.110242" y1="132.204513" x2="12.110242" y2="101.473451" id="Path" fill="#FFFFFF"></line>
                    <rect id="Rectangle" fill="#E5E5E5" x="11.7924713" y="101.473451" width="1" height="30.7342035"></rect>
                    <line x1="5.31948179" y1="121.837257" x2="19.1011978" y2="121.837257" id="Path" fill="#FFFFFF"></line>
                    <rect id="Rectangle" fill="#E5E5E5" x="5.31948179" y="121.526239" width="13.781716" height="1"></rect>
                    <line x1="5.31948179" y1="111.840708" x2="19.1011978" y2="111.840708" id="Path" fill="#FFFFFF"></line>
                    <rect id="Rectangle" fill="#E5E5E5" x="5.31948179" y="111.526549" width="13.781716" height="1"></rect>
                    <line x1="39.336837" y1="132.204513" x2="39.336837" y2="101.473451" id="Path" fill="#FFFFFF"></line>
                    <rect id="Rectangle" fill="#E5E5E5" x="39.0190662" y="101.473451" width="1" height="30.7342035"></rect>
                    <line x1="32.5460768" y1="121.837257" x2="46.3277927" y2="121.837257" id="Path" fill="#FFFFFF"></line>
                    <rect id="Rectangle" fill="#E5E5E5" x="32.5460768" y="121.526239" width="13.781716" height="1"></rect>
                    <line x1="32.5460768" y1="111.840708" x2="46.3277927" y2="111.840708" id="Path" fill="#FFFFFF"></line>
                    <rect id="Rectangle" fill="#E5E5E5" x="32.5460768" y="111.526549" width="13.781716" height="1"></rect>
                </g>
                <g id="bollengevel" transform="translate(298.000000, 33.000000)">
                    <rect id="Rectangle" fill="#E5E5E5" x="1.21388414" y="39.2699115" width="49.5722317" height="102.730088"></rect>
                    <path d="M52,38.4845133 L50.1251528,37.2278761 C51.2900924,36.4969519 51.8055277,35.0782023 51.3772193,33.7815291 C50.9489109,32.4848558 49.6858704,31.6402836 48.309112,31.7299415 C46.9323537,31.8195994 45.7922851,32.8206681 45.5397213,34.1616814 L45.4857003,34.1239823 C42.7681877,33.2322439 40.679727,31.0590575 39.9179258,28.3303317 C39.1561245,25.6016059 39.8213953,22.6770122 41.691518,20.5334513 L41.7105842,20.5114602 L41.7105842,15.7456637 L43.3216817,14.4513274 L38.0943535,14.4513274 C38.3316032,13.2964945 38.0321817,12.097355 37.2785963,11.1843391 C36.5250109,10.2713232 35.3967967,9.74079251 34.2048399,9.73893805 C33.8414448,9.7392703 33.4798958,9.79003102 33.1307749,9.88973451 C33.6629094,8.75382695 33.4206189,7.4102516 32.5242081,6.52613515 C31.6277974,5.64201871 30.2682041,5.40568021 29.1205084,5.93446903 C29.5744988,5.30204256 29.8177579,4.54541818 29.8164263,3.7699115 C29.8164263,1.68784687 28.1091768,0 26.0031777,0 L26.0031777,0 C23.8971787,0 22.1899291,1.68784687 22.1899291,3.7699115 C22.1867398,4.54473349 22.4277578,5.30129638 22.8794916,5.93446903 C21.7317959,5.40568021 20.3722026,5.64201871 19.4757919,6.52613515 C18.5793811,7.4102516 18.3370906,8.75382695 18.8692251,9.88973451 C18.5201042,9.79003102 18.1585552,9.7392703 17.7951601,9.73893805 C16.6032033,9.74079251 15.4749891,10.2713232 14.7214037,11.1843391 C13.9678183,12.097355 13.6683968,13.2964945 13.9056465,14.4513274 L8.67831826,14.4513274 L10.2894158,15.7330973 L10.2894158,20.5114602 L10.308482,20.5334513 C12.1800667,22.6770391 12.8462384,25.6025891 12.0843412,28.3322895 C11.322444,31.0619898 9.23297441,33.2357851 6.51429968,34.1271239 L6.46027866,34.164823 C6.20771491,32.8238097 5.06764633,31.822741 3.69088796,31.7330831 C2.31412958,31.6434252 1.05108905,32.4879974 0.622780679,33.7846707 C0.194472303,35.0813439 0.709907603,36.5000935 1.87484723,37.2310177 L0,38.4876549 L0,39.2102212 L26,39.4301327 L52,39.2102212 L52,38.4845133 Z" id="Path" fill="#E5E5E5"></path>
                    <rect id="Rectangle" fill="#FFFFFF" x="28.2943046" y="71.2199115" width="17.7951601" height="21.6141593"></rect>
                    <rect id="Rectangle" fill="#E5E5E5" x="27.9987778" y="78.3042035" width="18.5895869" height="1"></rect>
                    <rect id="Rectangle" fill="#E5E5E5" x="27.9987778" y="85.1214602" width="18.5895869" height="1"></rect>
                    <rect id="Rectangle" fill="#E5E5E5" x="34.0650208" y="70.9057522" width="1" height="22.2424779"></rect>
                    <rect id="Rectangle" fill="#E5E5E5" x="39.9978" y="71.0251327" width="1" height="21.9283186"></rect>
                    <rect id="Rectangle" fill="#FFFFFF" x="5.73258372" y="71.2199115" width="17.7951601" height="21.6141593"></rect>
                    <rect id="Rectangle" fill="#E5E5E5" x="5.59594231" y="78.3042035" width="18.4307015" height="1"></rect>
                    <rect id="Rectangle" fill="#E5E5E5" x="5.59594231" y="85.1214602" width="18.4307015" height="1"></rect>
                    <rect id="Rectangle" fill="#E5E5E5" x="11.5032999" y="70.9057522" width="1" height="22.0508407"></rect>
                    <rect id="Rectangle" fill="#E5E5E5" x="17.4360792" y="70.9057522" width="1" height="22.0508407"></rect>
                    <rect id="Rectangle" fill="#FFFFFF" x="21.2334393" y="114.039823" width="9.53312149" height="27.3318584"></rect>
                    <rect id="Rectangle" fill="#FFFFFF" x="32.6064532" y="101.473451" width="13.6641408" height="30.7876106"></rect>
                    <rect id="Rectangle" fill="#FFFFFF" x="21.2334393" y="101.473451" width="9.53312149" height="10.3672566"></rect>
                    <rect id="Rectangle" fill="#FFFFFF" x="5.73258372" y="101.473451" width="12.9618675" height="30.7876106"></rect>
                    <rect id="Rectangle" fill="#FFFFFF" x="19.9718895" y="20.420354" width="11.7575165" height="14.7654867"></rect>
                    <rect id="Rectangle" fill="#FFFFFF" x="5.73258372" y="46.8097345" width="11.1219751" height="16.9646018"></rect>
                    <rect id="Rectangle" fill="#FFFFFF" x="35.1486189" y="46.8097345" width="11.1219751" height="16.9646018"></rect>
                    <rect id="Rectangle" fill="#FFFFFF" x="19.0090442" y="46.8097345" width="13.9819115" height="16.9646018"></rect>
                    <line x1="26" y1="63.7743363" x2="26" y2="46.6840708" id="Path" fill="#FFFFFF"></line>
                    <rect id="Rectangle" fill="#E5E5E5" x="25.6822293" y="46.6840708" width="1" height="17.0902655"></rect>
                    <line x1="40.7096065" y1="63.6266814" x2="40.7096065" y2="46.7783186" id="Path" fill="#FFFFFF"></line>
                    <rect id="Rectangle" fill="#E5E5E5" x="40.3918357" y="46.7783186" width="1" height="16.8483628"></rect>
                    <line x1="11.2935713" y1="63.6266814" x2="11.2935713" y2="46.7783186" id="Path" fill="#FFFFFF"></line>
                    <rect id="Rectangle" fill="#E5E5E5" x="10.9758005" y="46.7783186" width="1" height="16.8483628"></rect>
                    <line x1="5.73258372" y1="55.2920354" x2="48.3265705" y2="55.2920354" id="Path" fill="#FFFFFF"></line>
                    <rect id="Rectangle" fill="#E5E5E5" x="5.73258372" y="54.9778761" width="42.5939868" height="1"></rect>
                    <line x1="26" y1="36.3482301" x2="26" y2="19.2579646" id="Path" fill="#FFFFFF"></line>
                    <rect id="Rectangle" fill="#E5E5E5" x="25.6822293" y="19.2579646" width="1" height="17.0902655"></rect>
                    <line x1="19.2092398" y1="27.8659292" x2="32.9909558" y2="27.8659292" id="Path" fill="#FFFFFF"></line>
                    <rect id="Rectangle" fill="#E5E5E5" x="19.2092398" y="27.5517699" width="13.781716" height="1"></rect>
                    <line x1="12.110242" y1="132.204513" x2="12.110242" y2="101.473451" id="Path" fill="#FFFFFF"></line>
                    <rect id="Rectangle" fill="#E5E5E5" x="11.7924713" y="101.473451" width="1" height="30.7342035"></rect>
                    <line x1="5.31948179" y1="121.837257" x2="19.1011978" y2="121.837257" id="Path" fill="#FFFFFF"></line>
                    <rect id="Rectangle" fill="#E5E5E5" x="5.31948179" y="121.526239" width="13.781716" height="1"></rect>
                    <line x1="5.31948179" y1="111.840708" x2="19.1011978" y2="111.840708" id="Path" fill="#FFFFFF"></line>
                    <rect id="Rectangle" fill="#E5E5E5" x="5.31948179" y="111.526549" width="13.781716" height="1"></rect>
                    <line x1="39.336837" y1="132.204513" x2="39.336837" y2="101.473451" id="Path" fill="#FFFFFF"></line>
                    <rect id="Rectangle" fill="#E5E5E5" x="39.0190662" y="101.473451" width="1" height="30.7342035"></rect>
                    <line x1="32.5460768" y1="121.837257" x2="46.3277927" y2="121.837257" id="Path" fill="#FFFFFF"></line>
                    <rect id="Rectangle" fill="#E5E5E5" x="32.5460768" y="121.526239" width="13.781716" height="1"></rect>
                    <line x1="32.5460768" y1="111.840708" x2="46.3277927" y2="111.840708" id="Path" fill="#FFFFFF"></line>
                    <rect id="Rectangle" fill="#E5E5E5" x="32.5460768" y="111.526549" width="13.781716" height="1"></rect>
                </g>
                <g id="mooie-gevel-copy" transform="translate(128.000000, 23.000000)">
                    <path d="M50.6676404,42.1330789 L1.33235956,42.1330789 L0,39.6009312 L2.03176922,39.6009312 L3.48122451,38.5247684 C2.45052536,37.7482486 2.0309877,36.4000382 2.43905118,35.1756795 C2.84711466,33.9513208 3.99155984,33.1245097 5.28196701,33.1217983 C6.5576898,33.1313633 7.6959874,33.9251363 8.14606536,35.1190298 L9.35816445,34.2106218 L10.3075893,27.4023097 C9.47688643,26.3584366 9.31565116,24.9315971 9.89245724,23.7286294 C10.4692633,22.5256617 11.6826709,21.7581253 13.0166149,21.7524552 C13.2288791,21.7524363 13.4407151,21.7715041 13.6495648,21.8094286 L13.7286836,15.91902 L11.9564238,12.5132814 L14.7097559,12.5132814 L14.6907675,9.6076419 L12.7919177,6.99952979 L16.9060921,6.99952979 C18.0317671,2.86718495 21.7840861,8.99599571e-15 26.0664597,8.99599571e-15 C30.3488334,8.99599571e-15 34.1011523,2.86718495 35.2268273,6.99952979 L39.1890938,6.99952979 L37.3092325,9.6076419 L37.2902441,12.5132814 L40.0404114,12.5132814 L38.2586574,15.91902 L38.3377762,21.8030982 C39.765994,21.5434929 41.2053635,22.1974839 41.9494131,23.4440792 C42.6934627,24.6906745 42.5859927,26.2681743 41.6797517,27.4023097 L42.6291766,34.2106218 L43.8412756,35.1190298 C44.2898652,33.9239789 45.42908,33.1295664 46.705374,33.1217983 C47.9957812,33.1245097 49.1402263,33.9513208 49.5482898,35.1756795 C49.9563533,36.4000382 49.5368156,37.7482486 48.5061165,38.5247684 L49.965066,39.5946008 L52,39.5946008 L50.6676404,42.1330789 Z" id="Path" fill="#E5E5E5"></path>
                    <polygon id="Path" fill="#E5E5E5" points="1.42730205 41.585502 17.1814254 41.585502 17.1814254 9.61713746 34.8787049 9.61713746 34.8787049 41.585502 50.5726979 41.585502 50.5726979 153 1.42730205 153"></polygon>
                    <rect id="Rectangle" fill="#FFFFFF" x="5.7345262" y="98.9797944" width="8.22834885" height="53.7036872"></rect>
                    <path d="M13.6464001,99.3121388 L13.6464001,152.351137 L6.05100116,152.351137 L6.05100116,99.3121388 L13.6464001,99.3121388 M13.9628751,98.9797944 L5.7345262,98.9797944 L5.7345262,152.683482 L13.9628751,152.683482 L13.9628751,98.9797944 Z" id="Shape" fill="#E5E5E5"></path>
                    <rect id="Rectangle" fill="#FFFFFF" x="15.2287749" y="98.9797944" width="8.22834885" height="53.7036872"></rect>
                    <path d="M23.1406488,99.3121388 L23.1406488,152.351137 L15.5452498,152.351137 L15.5452498,99.3121388 L23.1406488,99.3121388 M23.4571237,98.9797944 L15.2287749,98.9797944 L15.2287749,152.683482 L23.4571237,152.683482 L23.4571237,98.9797944 Z" id="Shape" fill="#E5E5E5"></path>
                    <polygon id="Path" fill="#E5E5E5" points="23.2988863 115.378616 16.9598929 115.378616 15.2920699 115.378616 15.2920699 114.065064 23.2988863 114.065064"></polygon>
                    <ellipse id="Oval" fill="#E5E5E5" cx="19.2891486" cy="121.788115" rx="1" ry="1"></ellipse>
                    <path d="M23.8780354,119.803544 L23.2450855,119.803544 C23.2450855,117.720852 21.4728258,116.024313 19.2891486,116.024313 C17.1054714,116.024313 15.3332116,117.720852 15.3332116,119.803544 L14.7002617,119.803544 C14.7002617,117.369517 16.7605137,115.391277 19.2891486,115.391277 C21.8177835,115.391277 23.8780354,117.369517 23.8780354,119.803544 Z" id="Path" fill="#E5E5E5"></path>
                    <polygon id="Path" fill="#E5E5E5" points="19.2891486 122.091972 16.1718702 116.704828 16.7193719 116.38831 19.2891486 120.829064 21.86209 116.38831 22.4095916 116.704828"></polygon>
                    <polygon id="Path" fill="#E5E5E5" points="23.8906944 124.807701 9.35816445 124.807701 5.53514698 124.807701 5.53514698 122.718679 23.8906944 122.718679"></polygon>
                    <polygon id="Path" fill="#E5E5E5" points="13.8046376 115.378616 7.46564421 115.378616 5.79782119 115.378616 5.79782119 114.065064 13.8046376 114.065064"></polygon>
                    <ellipse id="Oval" fill="#E5E5E5" cx="9.79489988" cy="121.788115" rx="1" ry="1"></ellipse>
                    <path d="M14.3837867,119.803544 L13.7508368,119.803544 C13.7508368,117.720852 11.9785771,116.024313 9.79489988,116.024313 C7.61122269,116.024313 5.83896294,117.720852 5.83896294,119.803544 L5.20601302,119.803544 C5.20601302,117.369517 7.26626499,115.391277 9.79489988,115.391277 C12.3235348,115.391277 14.3837867,117.369517 14.3837867,119.803544 Z" id="Path" fill="#E5E5E5"></path>
                    <polygon id="Path" fill="#E5E5E5" points="9.79489988 122.091972 6.67762157 116.704828 7.22512324 116.38831 9.79489988 120.829064 12.3678413 116.38831 12.9153429 116.704828"></polygon>
                    <rect id="Rectangle" fill="#FFFFFF" x="28.4985698" y="45.7255634" width="17.7225975" height="17.7250338"></rect>
                    <rect id="Rectangle" fill="#E5E5E5" x="28.3213438" y="51.4767038" width="18.3555474" height="1"></rect>
                    <rect id="Rectangle" fill="#E5E5E5" x="28.3213438" y="57.069585" width="18.3555474" height="1"></rect>
                    <rect id="Rectangle" fill="#E5E5E5" x="34.2489197" y="45.5673042" width="1" height="18.2757759"></rect>
                    <rect id="Rectangle" fill="#E5E5E5" x="39.8378674" y="45.5673042" width="1" height="18.2757759"></rect>
                    <rect id="Rectangle" fill="#FFFFFF" x="5.7345262" y="69.5720642" width="17.7225975" height="23.2641068"></rect>
                    <rect id="Rectangle" fill="#E5E5E5" x="5.7345262" y="76.7190511" width="17.7225975" height="1"></rect>
                    <rect id="Rectangle" fill="#E5E5E5" x="5.7345262" y="84.948531" width="17.7225975" height="1"></rect>
                    <rect id="Rectangle" fill="#E5E5E5" x="11.4627229" y="69.2270591" width="1" height="23.7388845"></rect>
                    <rect id="Rectangle" fill="#E5E5E5" x="17.0516706" y="69.2270591" width="1" height="23.7388845"></rect>
                    <rect id="Rectangle" fill="#FFFFFF" x="28.520723" y="69.5720642" width="17.7225975" height="23.2641068"></rect>
                    <rect id="Rectangle" fill="#E5E5E5" x="28.520723" y="76.7190511" width="17.7225975" height="1"></rect>
                    <rect id="Rectangle" fill="#E5E5E5" x="28.520723" y="84.948531" width="17.7225975" height="1"></rect>
                    <rect id="Rectangle" fill="#E5E5E5" x="34.2489197" y="69.2270591" width="1" height="23.7388845"></rect>
                    <rect id="Rectangle" fill="#E5E5E5" x="39.8378674" y="69.2270591" width="1" height="23.7388845"></rect>
                    <rect id="Rectangle" fill="#FFFFFF" x="21.2861055" y="25.6013197" width="9.49424868" height="13.2937753"></rect>
                    <ellipse id="Oval" fill="#FFFFFF" cx="26.0332299" cy="16.1057659" rx="4.74712434" ry="4.74777691"></ellipse>
                    <rect id="Rectangle" fill="#FFFFFF" x="5.71237295" y="45.7255634" width="17.7225975" height="17.7250338"></rect>
                    <rect id="Rectangle" fill="#E5E5E5" x="5.53514698" y="51.4767038" width="18.3555474" height="1"></rect>
                    <rect id="Rectangle" fill="#E5E5E5" x="5.53514698" y="57.069585" width="18.3555474" height="1"></rect>
                    <rect id="Rectangle" fill="#E5E5E5" x="11.4627229" y="45.5673042" width="1" height="18.2757759"></rect>
                    <rect id="Rectangle" fill="#E5E5E5" x="17.0516706" y="45.5673042" width="1" height="18.2757759"></rect>
                    <rect id="Rectangle" fill="#FFFFFF" x="28.4985698" y="99.1918617" width="17.7225975" height="43.996066"></rect>
                    <rect id="Rectangle" fill="#E5E5E5" x="28.4985698" y="105.620352" width="17.7225975" height="1"></rect>
                    <rect id="Rectangle" fill="#E5E5E5" x="28.4985698" y="113.245281" width="17.7225975" height="1"></rect>
                    <rect id="Rectangle" fill="#E5E5E5" x="28.6378188" y="120.873376" width="17.7225975" height="1"></rect>
                    <rect id="Rectangle" fill="#E5E5E5" x="28.6378188" y="128.501471" width="17.7225975" height="1"></rect>
                    <rect id="Rectangle" fill="#E5E5E5" x="28.6378188" y="136.126401" width="17.7225975" height="1"></rect>
                    <rect id="Rectangle" fill="#E5E5E5" x="34.3533565" y="98.9797944" width="1" height="44.6291029"></rect>
                    <rect id="Rectangle" fill="#E5E5E5" x="39.9454689" y="98.9797944" width="1" height="44.6291029"></rect>
                </g>
                <g id="trapgevel" transform="translate(231.000000, 0.000000)">
                    <polygon id="Path" fill="#E5E5E5" points="67 50.8558567 61.3960757 50.8558567 61.3960757 42.713762 62.748747 42.713762 62.748747 41.2293786 56.7361702 41.2293786 56.7361702 34.2068612 57.8227423 34.2068612 57.8227423 32.7224778 52.4215603 32.7224778 52.4215603 25.3854725 53.4574468 25.3854725 53.4574468 23.901089 48.1037825 23.901089 48.1037825 17.7025303 48.9876123 17.7025303 48.9876123 16.2181469 43.7891726 16.2181469 43.7891726 10.1076448 44.9137589 10.1076448 44.9137589 8.62326133 39.4365485 8.62326133 39.4365485 1.48438342 40.513617 1.48438342 40.513617 0 26.4832151 0 26.4832151 1.48438342 27.5634515 1.48438342 27.5634515 8.62326133 22.0862411 8.62326133 22.0862411 10.1076448 23.2076596 10.1076448 23.2076596 16.2181469 18.0123877 16.2181469 18.0123877 17.7025303 18.8930496 17.7025303 18.8930496 23.901089 13.5425532 23.901089 13.5425532 25.3854725 14.5784397 25.3854725 14.5784397 32.7224778 9.17725768 32.7224778 9.17725768 34.2068612 10.2638298 34.2068612 10.2638298 41.2293786 4.25125296 41.2293786 4.25125296 42.713762 5.60392435 42.713762 5.60392435 50.8558567 0 50.8558567 0 52.343385 1.39385343 52.343385 1.39385343 174.990565 65.6061466 174.990565 65.6061466 52.343385 67 52.343385"></polygon>
                    <rect id="Rectangle" fill="#FFFFFF" x="49.8556028" y="43.0848579" width="1.51423168" height="2.33664594"></rect>
                    <rect id="Rectangle" fill="#FFFFFF" x="16.2320567" y="43.0848579" width="1.51423168" height="2.33664594"></rect>
                    <rect id="Rectangle" fill="#FFFFFF" x="5.63560284" y="47.3776192" width="55.7604728" height="1.16989541"></rect>
                    <rect id="Rectangle" fill="#FFFFFF" x="1.39385343" y="74.879596" width="64.2091253" height="1.16989541"></rect>
                    <rect id="Rectangle" fill="#FFFFFF" x="1.39385343" y="86.0596449" width="4.54586288" height="1.16989541"></rect>
                    <rect id="Rectangle" fill="#FFFFFF" x="61.0571158" y="86.0596449" width="4.54586288" height="1.16989541"></rect>
                    <rect id="Rectangle" fill="#FFFFFF" x="20.3154137" y="86.0596449" width="6.13295508" height="1.16989541"></rect>
                    <rect id="Rectangle" fill="#FFFFFF" x="40.6846809" y="86.0596449" width="6.13295508" height="1.16989541"></rect>
                    <polygon id="Rectangle" fill="#FFFFFF" transform="translate(48.300314, 71.393734) rotate(-30.000000) translate(-48.300314, -71.393734) " points="47.5408754 70.2209013 49.0523624 70.2256553 49.059752 72.5665677 47.5482651 72.5618136"></polygon>
                    <polygon id="Rectangle" fill="#FFFFFF" transform="translate(60.168650, 71.392162) rotate(30.000000) translate(-60.168650, -71.392162) " points="59.4166013 70.2240829 60.9280883 70.2193288 60.9206986 72.5602412 59.4092117 72.5649952"></polygon>
                    <rect id="Rectangle" fill="#FFFFFF" x="53.4764539" y="68.3665493" width="1.51423168" height="2.33664594"></rect>
                    <polygon id="Rectangle" fill="#FFFFFF" transform="translate(27.281389, 71.392162) rotate(-30.000000) translate(-27.281389, -71.392162) " points="26.5219505 70.2193288 28.0334374 70.2240829 28.040827 72.5649952 26.5293401 72.5602412"></polygon>
                    <polygon id="Rectangle" fill="#FFFFFF" transform="translate(39.155636, 71.392162) rotate(30.000000) translate(-39.155636, -71.392162) " points="38.4035876 70.2240829 39.9150746 70.2193288 39.9076849 72.5602412 38.396198 72.5649952"></polygon>
                    <rect id="Rectangle" fill="#FFFFFF" x="32.4609456" y="68.3665493" width="1.51423168" height="2.33664594"></rect>
                    <polygon id="Rectangle" fill="#FFFFFF" transform="translate(6.737336, 71.393734) rotate(-30.000000) translate(-6.737336, -71.393734) " points="5.97789808 70.2209013 7.48938502 70.2256553 7.49677466 72.5665677 5.98528772 72.5618136"></polygon>
                    <polygon id="Rectangle" fill="#FFFFFF" transform="translate(18.611584, 71.393734) rotate(30.000000) translate(-18.611584, -71.393734) " points="17.8595353 70.2256553 19.3710222 70.2209013 19.3636326 72.5618136 17.8521456 72.5665677"></polygon>
                    <rect id="Rectangle" fill="#FFFFFF" x="11.9174468" y="68.3665493" width="1.51423168" height="2.33664594"></rect>
                    <rect id="Rectangle" fill="#FFFFFF" transform="translate(11.361489, 37.990152) rotate(90.000000) translate(-11.361489, -37.990152) " x="10.609863" y="37.02871" width="1.5032527" height="1.92288416"></rect>
                    <polygon id="Rectangle" fill="#FFFFFF" transform="translate(55.781064, 37.993297) rotate(90.000000) translate(-55.781064, -37.993297) " points="55.0294375 37.0318548 56.5326902 37.0318548 56.5326902 38.954739 55.0294375 38.954739"></polygon>
                    <polygon id="Rectangle" fill="#FFFFFF" transform="translate(15.451182, 29.140459) rotate(90.000000) translate(-15.451182, -29.140459) " points="14.6995557 28.1790173 16.2028084 28.1790173 16.2028084 30.1019014 14.6995557 30.1019014"></polygon>
                    <polygon id="Rectangle" fill="#FFFFFF" transform="translate(19.879835, 21.275114) rotate(90.000000) translate(-19.879835, -21.275114) " points="19.1282082 20.313672 20.6314609 20.313672 20.6314609 22.2365562 19.1282082 22.2365562"></polygon>
                    <polygon id="Rectangle" fill="#FFFFFF" transform="translate(47.253215, 21.275114) rotate(90.000000) translate(-47.253215, -21.275114) " points="46.5015888 20.313672 48.0048415 20.313672 48.0048415 22.2365562 46.5015888 22.2365562"></polygon>
                    <polygon id="Rectangle" fill="#FFFFFF" transform="translate(51.371418, 29.137314) rotate(90.000000) translate(-51.371418, -29.137314) " points="50.6197921 28.1758724 52.1230448 28.1758724 52.1230448 30.0987565 50.6197921 30.0987565"></polygon>
                    <rect id="Rectangle" fill="#FFFFFF" x="30.4683688" y="28.807102" width="7.05479905" height="9.93782123"></rect>
                    <path d="M39.6582979,41.2608274 L28.3364066,41.2608274 L28.3364066,26.2911979 L39.6582979,26.2911979 L39.6582979,41.2608274 Z M28.9699764,40.6318513 L39.0247281,40.6318513 L39.0247281,26.920174 L28.9699764,26.920174 L28.9699764,40.6318513 Z" id="Shape" fill="#FFFFFF"></path>
                    <rect id="Rectangle" fill="#E5E5E5" x="33.8167849" y="28.807102" width="1" height="9.93782123"></rect>
                    <rect id="Rectangle" fill="#E5E5E5" x="30.4683688" y="33.4615246" width="7.21319149" height="1"></rect>
                    <rect id="Rectangle" fill="#FFFFFF" x="13.6280851" y="49.8526399" width="6.72217494" height="14.3280739"></rect>
                    <path d="M22.3998582,66.1148151 L11.5816548,66.1148151 L11.5816548,48.0065953 L22.3998582,48.0065953 L22.3998582,66.1148151 Z M12.2152246,65.4858391 L21.7662884,65.4858391 L21.7662884,48.6355713 L12.2152246,48.6355713 L12.2152246,65.4858391 Z" id="Shape" fill="#FFFFFF"></path>
                    <rect id="Rectangle" fill="#E5E5E5" x="16.8022695" y="49.8526399" width="1" height="14.3280739"></rect>
                    <rect id="Rectangle" fill="#E5E5E5" x="13.6280851" y="58.7998239" width="6.87106383" height="1"></rect>
                    <rect id="Rectangle" fill="#E5E5E5" x="13.6280851" y="54.4598893" width="6.87106383" height="1"></rect>
                    <rect id="Rectangle" fill="#FFFFFF" x="47.0298818" y="49.8526399" width="6.72217494" height="14.3280739"></rect>
                    <path d="M55.798487,66.1148151 L44.9834515,66.1148151 L44.9834515,48.0065953 L55.8016548,48.0065953 L55.798487,66.1148151 Z M45.6138534,65.4858391 L55.1649173,65.4858391 L55.1649173,48.6355713 L45.6170213,48.6355713 L45.6138534,65.4858391 Z" id="Shape" fill="#FFFFFF"></path>
                    <rect id="Rectangle" fill="#E5E5E5" x="50.2040662" y="49.8526399" width="1" height="14.3280739"></rect>
                    <rect id="Rectangle" fill="#E5E5E5" x="47.0298818" y="58.7998239" width="6.87106383" height="1"></rect>
                    <rect id="Rectangle" fill="#E5E5E5" x="47.0298818" y="54.4598893" width="6.87106383" height="1"></rect>
                    <rect id="Rectangle" fill="#FFFFFF" x="28.203357" y="49.8526399" width="11.4549409" height="14.3280739"></rect>
                    <path d="M41.2992435,66.1148151 L26.4293617,66.1148151 L26.4293617,48.0065953 L41.2992435,48.0065953 L41.2992435,66.1148151 Z M27.0629314,65.4858391 L40.6656738,65.4858391 L40.6656738,48.6355713 L27.0629314,48.6355713 L27.0629314,65.4858391 Z" id="Shape" fill="#FFFFFF"></path>
                    <rect id="Rectangle" fill="#E5E5E5" x="35.7174941" y="49.8526399" width="1" height="14.3280739"></rect>
                    <rect id="Rectangle" fill="#E5E5E5" x="31.8337116" y="49.8526399" width="1" height="14.3280739"></rect>
                    <rect id="Rectangle" fill="#E5E5E5" x="28.203357" y="58.7998239" width="11.4549409" height="1"></rect>
                    <rect id="Rectangle" fill="#E5E5E5" x="28.203357" y="54.4598893" width="11.4549409" height="1"></rect>
                    <rect id="Rectangle" fill="#FFFFFF" x="32.4672813" y="20.8442655" width="2.38855792" height="2.37123962"></rect>
                    <polygon id="Path" fill="#FFFFFF" points="40.9824586 43.6918197 39.1039243 46.5222118 40.9824586 46.5222118"></polygon>
                    <polygon id="Path" fill="#FFFFFF" points="26.6447754 43.6918197 28.5233097 46.5222118 26.6447754 46.5222118"></polygon>
                    <rect id="Rectangle" fill="#FFFFFF" x="33.2180615" y="43.6918197" width="1.46037825" height="2.83039212"></rect>
                    <rect id="Rectangle" fill="#FFFFFF" x="27.9024113" y="77.2036624" width="11.4549409" height="20.9543363"></rect>
                    <path d="M40.9982979,100.699062 L26.1284161,100.699062 L26.1284161,75.7287137 L40.9982979,75.7287137 L40.9982979,100.699062 Z M26.7619858,100.070086 L40.3647281,100.070086 L40.3647281,76.3576897 L26.7619858,76.3576897 L26.7619858,100.070086 Z" id="Shape" fill="#FFFFFF"></path>
                    <rect id="Rectangle" fill="#E5E5E5" x="35.4165485" y="77.2036624" width="1" height="20.9543363"></rect>
                    <rect id="Rectangle" fill="#E5E5E5" x="31.532766" y="77.2036624" width="1" height="20.9543363"></rect>
                    <rect id="Rectangle" fill="#E5E5E5" x="27.972104" y="92.8997592" width="11.4549409" height="1"></rect>
                    <rect id="Rectangle" fill="#E5E5E5" x="27.972104" y="87.5377386" width="11.4549409" height="1"></rect>
                    <rect id="Rectangle" fill="#E5E5E5" x="27.9024113" y="82.1757179" width="11.4549409" height="1"></rect>
                    <rect id="Rectangle" fill="#FFFFFF" x="27.9024113" y="112.712504" width="11.4549409" height="39.3801891"></rect>
                    <path d="M40.9982979,154.15259 L26.1284161,154.15259 L26.1284161,111.23441 L40.9982979,111.23441 L40.9982979,154.15259 Z M26.7619858,153.523614 L40.3647281,153.523614 L40.3647281,111.863386 L26.7619858,111.863386 L26.7619858,153.523614 Z" id="Shape" fill="#FFFFFF"></path>
                    <rect id="Rectangle" fill="#E5E5E5" x="35.4165485" y="112.712504" width="1" height="39.3801891"></rect>
                    <rect id="Rectangle" fill="#E5E5E5" x="31.532766" y="112.712504" width="1" height="39.3801891"></rect>
                    <rect id="Rectangle" fill="#E5E5E5" x="27.9024113" y="129.47157" width="11.4549409" height="1"></rect>
                    <rect id="Rectangle" fill="#E5E5E5" x="27.972104" y="123.892553" width="11.4549409" height="1"></rect>
                    <rect id="Rectangle" fill="#E5E5E5" x="27.9024113" y="118.313536" width="11.4549409" height="1"></rect>
                    <rect id="Rectangle" fill="#E5E5E5" x="27.972104" y="146.208622" width="11.4549409" height="1"></rect>
                    <rect id="Rectangle" fill="#E5E5E5" x="27.972104" y="140.629605" width="11.4549409" height="1"></rect>
                    <rect id="Rectangle" fill="#E5E5E5" x="27.9024113" y="135.050588" width="11.4549409" height="1"></rect>
                    <rect id="Rectangle" fill="#FFFFFF" x="7.6693617" y="112.712504" width="11.4549409" height="39.3801891"></rect>
                    <path d="M20.7652482,154.15259 L5.89853428,154.15259 L5.89853428,111.23441 L20.7652482,111.23441 L20.7652482,154.15259 Z M6.53210402,153.523614 L20.1316785,153.523614 L20.1316785,111.863386 L6.53210402,111.863386 L6.53210402,153.523614 Z" id="Shape" fill="#FFFFFF"></path>
                    <rect id="Rectangle" fill="#E5E5E5" x="15.1834988" y="112.712504" width="1" height="39.3801891"></rect>
                    <rect id="Rectangle" fill="#E5E5E5" x="11.2997163" y="112.712504" width="1" height="39.3801891"></rect>
                    <rect id="Rectangle" fill="#E5E5E5" x="7.6693617" y="129.47157" width="11.4549409" height="1"></rect>
                    <rect id="Rectangle" fill="#E5E5E5" x="7.73905437" y="123.892553" width="11.4549409" height="1"></rect>
                    <rect id="Rectangle" fill="#E5E5E5" x="7.6693617" y="118.313536" width="11.4549409" height="1"></rect>
                    <rect id="Rectangle" fill="#E5E5E5" x="7.73905437" y="146.208622" width="11.4549409" height="1"></rect>
                    <rect id="Rectangle" fill="#E5E5E5" x="7.73905437" y="140.629605" width="11.4549409" height="1"></rect>
                    <rect id="Rectangle" fill="#E5E5E5" x="7.6693617" y="135.050588" width="11.4549409" height="1"></rect>
                    <rect id="Rectangle" fill="#FFFFFF" x="48.2685106" y="77.2036624" width="11.4549409" height="20.9543363"></rect>
                    <path d="M61.3643972,100.699062 L46.4976832,100.699062 L46.4976832,75.7287137 L61.3643972,75.7287137 L61.3643972,100.699062 Z M47.131253,100.070086 L60.7308274,100.070086 L60.7308274,76.3576897 L47.131253,76.3576897 L47.131253,100.070086 Z" id="Shape" fill="#FFFFFF"></path>
                    <rect id="Rectangle" fill="#E5E5E5" x="55.7858156" y="77.2036624" width="1" height="20.9543363"></rect>
                    <rect id="Rectangle" fill="#E5E5E5" x="51.9020331" y="77.2036624" width="1" height="20.9543363"></rect>
                    <rect id="Rectangle" fill="#E5E5E5" x="48.3382033" y="92.8997592" width="11.4549409" height="1"></rect>
                    <rect id="Rectangle" fill="#E5E5E5" x="48.3382033" y="87.5377386" width="11.4549409" height="1"></rect>
                    <rect id="Rectangle" fill="#E5E5E5" x="48.2685106" y="82.1757179" width="11.4549409" height="1"></rect>
                    <rect id="Rectangle" fill="#FFFFFF" x="7.53631206" y="77.2036624" width="11.4549409" height="20.9543363"></rect>
                    <path d="M20.6321986,100.699062 L5.76231678,100.699062 L5.76231678,75.7287137 L20.6321986,75.7287137 L20.6321986,100.699062 Z M6.39588652,100.070086 L19.9986288,100.070086 L19.9986288,76.3576897 L6.39588652,76.3576897 L6.39588652,100.070086 Z" id="Shape" fill="#FFFFFF"></path>
                    <rect id="Rectangle" fill="#E5E5E5" x="15.0504492" y="77.2036624" width="1" height="20.9543363"></rect>
                    <rect id="Rectangle" fill="#E5E5E5" x="11.1666667" y="77.2036624" width="1" height="20.9543363"></rect>
                    <rect id="Rectangle" fill="#E5E5E5" x="7.60283688" y="92.8997592" width="11.4549409" height="1"></rect>
                    <rect id="Rectangle" fill="#E5E5E5" x="7.60283688" y="87.5377386" width="11.4549409" height="1"></rect>
                    <rect id="Rectangle" fill="#E5E5E5" x="7.53631206" y="82.1757179" width="11.4549409" height="1"></rect>
                    <rect id="Rectangle" fill="#FFFFFF" x="1.39385343" y="101.441254" width="3.31040189" height="6.85583869"></rect>
                    <rect id="Rectangle" fill="#FFFFFF" x="62.2957447" y="101.441254" width="3.31040189" height="6.85583869"></rect>
                    <path d="M61.3643972,160.1656 L46.4976832,160.1656 L46.4976832,111.23441 L61.3643972,111.23441 L61.3643972,160.1656 Z M47.131253,159.536624 L60.7308274,159.536624 L60.7308274,111.863386 L47.131253,111.863386 L47.131253,159.536624 Z" id="Shape" fill="#FFFFFF"></path>
                    <rect id="Rectangle" fill="#FFFFFF" x="48.2019858" y="112.712504" width="11.4549409" height="15.4602307"></rect>
                    <path d="M53.9326241,128.487223 C52.4437352,128.487223 51.1860993,124.801423 51.1860993,120.442619 C51.1860993,116.083816 52.4532388,112.398016 53.9326241,112.398016 C55.4120095,112.398016 56.6759811,116.080671 56.6759811,120.442619 C56.6759811,124.804568 55.4183452,128.487223 53.9326241,128.487223 Z M53.9326241,113.026992 C53.1026478,113.026992 51.819669,116.209611 51.819669,120.442619 C51.819669,124.675628 53.0868085,127.858247 53.9326241,127.858247 C54.7784397,127.858247 56.0424113,124.672483 56.0424113,120.442619 C56.0424113,116.212756 54.7626005,113.026992 53.9326241,113.026992 Z" id="Shape" fill="#E5E5E5"></path>
                    <rect id="Rectangle" fill="#FFFFFF" x="48.2019858" y="130.27666" width="11.4549409" height="29.4580922"></rect>
                    <rect id="Rectangle" fill="#E5E5E5" x="50.5905437" y="120.373432" width="1" height="1"></rect>
                    <rect id="Rectangle" fill="#E5E5E5" x="56.3560284" y="120.373432" width="1" height="1"></rect>
                    <path d="M59.7107801,128.487223 C58.2250591,128.487223 56.9674232,124.801423 56.9674232,120.442619 C56.9674232,116.083816 58.2345626,112.398016 59.7107801,112.398016 L59.7107801,113.026992 C58.9663357,113.026992 57.6009929,115.857384 57.6009929,120.442619 C57.6009929,125.027855 58.9663357,127.858247 59.7107801,127.858247 L59.7107801,128.487223 Z" id="Path" fill="#E5E5E5"></path>
                    <path d="M48.1513002,128.487223 L48.1513002,127.858247 C48.9812766,127.858247 50.2610875,124.672483 50.2610875,120.442619 C50.2610875,116.212756 48.993948,113.026992 48.1513002,113.026992 L48.1513002,112.398016 C49.6401891,112.398016 50.8946572,116.080671 50.8946572,120.442619 C50.8946572,124.804568 49.6528605,128.487223 48.1513002,128.487223 Z" id="Path" fill="#E5E5E5"></path>
                    <polygon id="Path" fill="#FFFFFF" points="25.1337116 163.936312 24.538156 163.203555 44.8599054 146.875337 45.1956974 147.818801"></polygon>
                    <polygon id="Path" fill="#FFFFFF" points="25.1337116 170.754412 24.538156 170.01851 44.8599054 153.690292 45.1956974 154.633756"></polygon>
                    <rect id="Rectangle" fill="#FFFFFF" x="44.7268558" y="146.875337" width="1" height="17.0043669"></rect>
                    <rect id="Rectangle" fill="#FFFFFF" x="28.6246809" y="160.143586" width="1" height="14.8564138"></rect>
                    <rect id="Rectangle" fill="#FFFFFF" x="44.8757447" y="162.93624" width="18.7758392" height="1"></rect>
                    <rect id="Rectangle" fill="#FFFFFF" x="31.0892671" y="171.735614" width="3.38643026" height="1"></rect>
                    <rect id="Rectangle" fill="#FFFFFF" x="34.4725296" y="169.49646" width="3.38643026" height="1"></rect>
                    <rect id="Rectangle" fill="#FFFFFF" x="37.855792" y="167.320203" width="3.38643026" height="1"></rect>
                    <rect id="Rectangle" fill="#FFFFFF" x="41.2390544" y="165.081048" width="3.38643026" height="1"></rect>
                    <rect id="Rectangle" fill="#FFFFFF" x="27.7091726" y="174.043956" width="3.38009456" height="1"></rect>
                </g>
                <g id="mooie-gevel-copy" transform="translate(0.000000, 23.000000)">
                    <path d="M50.6676404,42.1330789 L1.33235956,42.1330789 L0,39.6009312 L2.03176922,39.6009312 L3.48122451,38.5247684 C2.45052536,37.7482486 2.0309877,36.4000382 2.43905118,35.1756795 C2.84711466,33.9513208 3.99155984,33.1245097 5.28196701,33.1217983 C6.5576898,33.1313633 7.6959874,33.9251363 8.14606536,35.1190298 L9.35816445,34.2106218 L10.3075893,27.4023097 C9.47688643,26.3584366 9.31565116,24.9315971 9.89245724,23.7286294 C10.4692633,22.5256617 11.6826709,21.7581253 13.0166149,21.7524552 C13.2288791,21.7524363 13.4407151,21.7715041 13.6495648,21.8094286 L13.7286836,15.91902 L11.9564238,12.5132814 L14.7097559,12.5132814 L14.6907675,9.6076419 L12.7919177,6.99952979 L16.9060921,6.99952979 C18.0317671,2.86718495 21.7840861,8.99599571e-15 26.0664597,8.99599571e-15 C30.3488334,8.99599571e-15 34.1011523,2.86718495 35.2268273,6.99952979 L39.1890938,6.99952979 L37.3092325,9.6076419 L37.2902441,12.5132814 L40.0404114,12.5132814 L38.2586574,15.91902 L38.3377762,21.8030982 C39.765994,21.5434929 41.2053635,22.1974839 41.9494131,23.4440792 C42.6934627,24.6906745 42.5859927,26.2681743 41.6797517,27.4023097 L42.6291766,34.2106218 L43.8412756,35.1190298 C44.2898652,33.9239789 45.42908,33.1295664 46.705374,33.1217983 C47.9957812,33.1245097 49.1402263,33.9513208 49.5482898,35.1756795 C49.9563533,36.4000382 49.5368156,37.7482486 48.5061165,38.5247684 L49.965066,39.5946008 L52,39.5946008 L50.6676404,42.1330789 Z" id="Path" fill="#E5E5E5"></path>
                    <polygon id="Path" fill="#E5E5E5" points="1.42730205 41.585502 17.1814254 41.585502 17.1814254 9.61713746 34.8787049 9.61713746 34.8787049 41.585502 50.5726979 41.585502 50.5726979 153 1.42730205 153"></polygon>
                    <rect id="Rectangle" fill="#FFFFFF" x="5.7345262" y="98.9797944" width="8.22834885" height="53.7036872"></rect>
                    <path d="M13.6464001,99.3121388 L13.6464001,152.351137 L6.05100116,152.351137 L6.05100116,99.3121388 L13.6464001,99.3121388 M13.9628751,98.9797944 L5.7345262,98.9797944 L5.7345262,152.683482 L13.9628751,152.683482 L13.9628751,98.9797944 Z" id="Shape" fill="#E5E5E5"></path>
                    <rect id="Rectangle" fill="#FFFFFF" x="15.2287749" y="98.9797944" width="8.22834885" height="53.7036872"></rect>
                    <path d="M23.1406488,99.3121388 L23.1406488,152.351137 L15.5452498,152.351137 L15.5452498,99.3121388 L23.1406488,99.3121388 M23.4571237,98.9797944 L15.2287749,98.9797944 L15.2287749,152.683482 L23.4571237,152.683482 L23.4571237,98.9797944 Z" id="Shape" fill="#E5E5E5"></path>
                    <polygon id="Path" fill="#E5E5E5" points="23.2988863 115.378616 16.9598929 115.378616 15.2920699 115.378616 15.2920699 114.065064 23.2988863 114.065064"></polygon>
                    <ellipse id="Oval" fill="#E5E5E5" cx="19.2891486" cy="121.788115" rx="1" ry="1"></ellipse>
                    <path d="M23.8780354,119.803544 L23.2450855,119.803544 C23.2450855,117.720852 21.4728258,116.024313 19.2891486,116.024313 C17.1054714,116.024313 15.3332116,117.720852 15.3332116,119.803544 L14.7002617,119.803544 C14.7002617,117.369517 16.7605137,115.391277 19.2891486,115.391277 C21.8177835,115.391277 23.8780354,117.369517 23.8780354,119.803544 Z" id="Path" fill="#E5E5E5"></path>
                    <polygon id="Path" fill="#E5E5E5" points="19.2891486 122.091972 16.1718702 116.704828 16.7193719 116.38831 19.2891486 120.829064 21.86209 116.38831 22.4095916 116.704828"></polygon>
                    <polygon id="Path" fill="#E5E5E5" points="23.8906944 124.807701 9.35816445 124.807701 5.53514698 124.807701 5.53514698 122.718679 23.8906944 122.718679"></polygon>
                    <polygon id="Path" fill="#E5E5E5" points="13.8046376 115.378616 7.46564421 115.378616 5.79782119 115.378616 5.79782119 114.065064 13.8046376 114.065064"></polygon>
                    <ellipse id="Oval" fill="#E5E5E5" cx="9.79489988" cy="121.788115" rx="1" ry="1"></ellipse>
                    <path d="M14.3837867,119.803544 L13.7508368,119.803544 C13.7508368,117.720852 11.9785771,116.024313 9.79489988,116.024313 C7.61122269,116.024313 5.83896294,117.720852 5.83896294,119.803544 L5.20601302,119.803544 C5.20601302,117.369517 7.26626499,115.391277 9.79489988,115.391277 C12.3235348,115.391277 14.3837867,117.369517 14.3837867,119.803544 Z" id="Path" fill="#E5E5E5"></path>
                    <polygon id="Path" fill="#E5E5E5" points="9.79489988 122.091972 6.67762157 116.704828 7.22512324 116.38831 9.79489988 120.829064 12.3678413 116.38831 12.9153429 116.704828"></polygon>
                    <rect id="Rectangle" fill="#FFFFFF" x="28.4985698" y="45.7255634" width="17.7225975" height="17.7250338"></rect>
                    <rect id="Rectangle" fill="#E5E5E5" x="28.3213438" y="51.4767038" width="18.3555474" height="1"></rect>
                    <rect id="Rectangle" fill="#E5E5E5" x="28.3213438" y="57.069585" width="18.3555474" height="1"></rect>
                    <rect id="Rectangle" fill="#E5E5E5" x="34.2489197" y="45.5673042" width="1" height="18.2757759"></rect>
                    <rect id="Rectangle" fill="#E5E5E5" x="39.8378674" y="45.5673042" width="1" height="18.2757759"></rect>
                    <rect id="Rectangle" fill="#FFFFFF" x="5.7345262" y="69.5720642" width="17.7225975" height="23.2641068"></rect>
                    <rect id="Rectangle" fill="#E5E5E5" x="5.7345262" y="76.7190511" width="17.7225975" height="1"></rect>
                    <rect id="Rectangle" fill="#E5E5E5" x="5.7345262" y="84.948531" width="17.7225975" height="1"></rect>
                    <rect id="Rectangle" fill="#E5E5E5" x="11.4627229" y="69.2270591" width="1" height="23.7388845"></rect>
                    <rect id="Rectangle" fill="#E5E5E5" x="17.0516706" y="69.2270591" width="1" height="23.7388845"></rect>
                    <rect id="Rectangle" fill="#FFFFFF" x="28.520723" y="69.5720642" width="17.7225975" height="23.2641068"></rect>
                    <rect id="Rectangle" fill="#E5E5E5" x="28.520723" y="76.7190511" width="17.7225975" height="1"></rect>
                    <rect id="Rectangle" fill="#E5E5E5" x="28.520723" y="84.948531" width="17.7225975" height="1"></rect>
                    <rect id="Rectangle" fill="#E5E5E5" x="34.2489197" y="69.2270591" width="1" height="23.7388845"></rect>
                    <rect id="Rectangle" fill="#E5E5E5" x="39.8378674" y="69.2270591" width="1" height="23.7388845"></rect>
                    <rect id="Rectangle" fill="#FFFFFF" x="21.2861055" y="25.6013197" width="9.49424868" height="13.2937753"></rect>
                    <ellipse id="Oval" fill="#FFFFFF" cx="26.0332299" cy="16.1057659" rx="4.74712434" ry="4.74777691"></ellipse>
                    <rect id="Rectangle" fill="#FFFFFF" x="5.71237295" y="45.7255634" width="17.7225975" height="17.7250338"></rect>
                    <rect id="Rectangle" fill="#E5E5E5" x="5.53514698" y="51.4767038" width="18.3555474" height="1"></rect>
                    <rect id="Rectangle" fill="#E5E5E5" x="5.53514698" y="57.069585" width="18.3555474" height="1"></rect>
                    <rect id="Rectangle" fill="#E5E5E5" x="11.4627229" y="45.5673042" width="1" height="18.2757759"></rect>
                    <rect id="Rectangle" fill="#E5E5E5" x="17.0516706" y="45.5673042" width="1" height="18.2757759"></rect>
                    <rect id="Rectangle" fill="#FFFFFF" x="28.4985698" y="99.1918617" width="17.7225975" height="43.996066"></rect>
                    <rect id="Rectangle" fill="#E5E5E5" x="28.4985698" y="105.620352" width="17.7225975" height="1"></rect>
                    <rect id="Rectangle" fill="#E5E5E5" x="28.4985698" y="113.245281" width="17.7225975" height="1"></rect>
                    <rect id="Rectangle" fill="#E5E5E5" x="28.6378188" y="120.873376" width="17.7225975" height="1"></rect>
                    <rect id="Rectangle" fill="#E5E5E5" x="28.6378188" y="128.501471" width="17.7225975" height="1"></rect>
                    <rect id="Rectangle" fill="#E5E5E5" x="28.6378188" y="136.126401" width="17.7225975" height="1"></rect>
                    <rect id="Rectangle" fill="#E5E5E5" x="34.3533565" y="98.9797944" width="1" height="44.6291029"></rect>
                    <rect id="Rectangle" fill="#E5E5E5" x="39.9454689" y="98.9797944" width="1" height="44.6291029"></rect>
                </g>
            </g>
        </g>
    </g>
</svg>