<?xml version="1.0" encoding="UTF-8"?>
<svg width="559px" height="518px" viewBox="0 0 559 518" version="1.1" xmlns="http://www.w3.org/2000/svg" xmlns:xlink="http://www.w3.org/1999/xlink">
    <title>Group 2</title>
    <defs>
        <polygon id="path-1" points="0 0 20.4155668 0 20.4155668 17.6424439 0 17.6424439"></polygon>
    </defs>
    <g id="Page-1" stroke="none" stroke-width="1" fill="none" fill-rule="evenodd">
        <g id="Irma:-404-search-a'dam-stilo-BLACK" transform="translate(-498.000000, -230.000000)">
            <g id="Group-2" transform="translate(498.985188, 230.012912)">
                <g id="vergrootglas" transform="translate(-0.000000, -0.000000)">
                    <g id="Group-4" transform="translate(211.514812, 236.487088) rotate(6.000000) translate(-211.514812, -236.487088) translate(21.731103, 18.644435)" fill="#000000">
                        <path d="M127.495463,53.9827925 C82.0861021,111.89889 88.446075,193.110695 140.211889,243.11838 L123.771517,264.366406 C117.912315,259.753923 109.510829,260.194513 104.202269,266.095745 L2.83996979,395.134615 C-1.76831004,400.999123 -0.625481159,409.37628 5.23184358,413.988861 L29.4021956,433.109069 C34.5225175,437.057209 42.9258812,436.616521 47.5321851,430.750232 L149.560018,300.975254 C154.166322,295.108965 152.325188,286.770313 146.467765,282.155852 L162.908137,260.907826 C223.186476,299.223416 304.665458,286.513415 349.376416,228.633943 C397.403384,167.067003 387.139939,78.3259063 325.645523,30.2345891 C264.151107,-17.856728 175.52421,-7.5861248 127.495463,53.9827925 Z" id="Fill-2"></path>
                    </g>
                    <ellipse id="Oval" fill="#FFFFFF" cx="266.933652" cy="166" rx="101.933652" ry="102"></ellipse>
                    <path d="M224.601944,201.611107 L224.601944,187.931107 L234.386944,187.931107 L234.386944,177.671107 L224.601944,177.671107 L224.601944,134.351107 L211.681944,134.351107 L184.606944,176.626107 L184.606944,187.931107 L213.201944,187.931107 L213.201944,201.611107 L224.601944,201.611107 Z M213.201944,177.671107 L196.196944,177.671107 L213.011944,150.501107 L213.201944,150.501107 L213.201944,177.671107 Z M265.736944,202.751107 C267.003611,202.751107 268.476111,202.624441 270.154444,202.371107 C271.832778,202.117774 273.574444,201.595274 275.379444,200.803607 C277.184444,200.011941 278.957778,198.840274 280.699444,197.288607 C282.441111,195.736941 284.008611,193.678607 285.401944,191.113607 C286.795278,188.548607 287.919444,185.381941 288.774444,181.613607 C289.629444,177.845274 290.056944,173.301107 290.056944,167.981107 C290.056944,162.661107 289.629444,158.116941 288.774444,154.348607 C287.919444,150.580274 286.795278,147.413607 285.401944,144.848607 C284.008611,142.283607 282.441111,140.225274 280.699444,138.673607 C278.957778,137.121941 277.184444,135.950274 275.379444,135.158607 C273.574444,134.366941 271.832778,133.844441 270.154444,133.591107 C268.476111,133.337774 267.003611,133.211107 265.736944,133.211107 C264.470278,133.211107 262.997778,133.337774 261.319444,133.591107 C259.641111,133.844441 257.899444,134.366941 256.094444,135.158607 C254.289444,135.950274 252.516111,137.121941 250.774444,138.673607 C249.032778,140.225274 247.465278,142.283607 246.071944,144.848607 C244.678611,147.413607 243.554444,150.580274 242.699444,154.348607 C241.844444,158.116941 241.416944,162.661107 241.416944,167.981107 C241.416944,173.301107 241.844444,177.845274 242.699444,181.613607 C243.554444,185.381941 244.678611,188.548607 246.071944,191.113607 C247.465278,193.678607 249.032778,195.736941 250.774444,197.288607 C252.516111,198.840274 254.289444,200.011941 256.094444,200.803607 C257.899444,201.595274 259.641111,202.117774 261.319444,202.371107 C262.997778,202.624441 264.470278,202.751107 265.736944,202.751107 Z M265.736944,191.921107 C262.886944,191.921107 260.606944,191.066107 258.896944,189.356107 C257.186944,187.646107 255.888611,185.556107 255.001944,183.086107 C254.115278,180.616107 253.529444,178.003607 253.244444,175.248607 C252.959444,172.493607 252.816944,170.071107 252.816944,167.981107 C252.816944,165.891107 252.959444,163.468607 253.244444,160.713607 C253.529444,157.958607 254.115278,155.346107 255.001944,152.876107 C255.888611,150.406107 257.186944,148.316107 258.896944,146.606107 C260.606944,144.896107 262.886944,144.041107 265.736944,144.041107 C268.586944,144.041107 270.866944,144.896107 272.576944,146.606107 C274.286944,148.316107 275.585278,150.406107 276.471944,152.876107 C277.358611,155.346107 277.944444,157.958607 278.229444,160.713607 C278.514444,163.468607 278.656944,165.891107 278.656944,167.981107 C278.656944,170.071107 278.514444,172.493607 278.229444,175.248607 C277.944444,178.003607 277.358611,180.616107 276.471944,183.086107 C275.585278,185.556107 274.286944,187.646107 272.576944,189.356107 C270.866944,191.066107 268.586944,191.921107 265.736944,191.921107 Z M337.081944,201.611107 L337.081944,187.931107 L346.866944,187.931107 L346.866944,177.671107 L337.081944,177.671107 L337.081944,134.351107 L324.161944,134.351107 L297.086944,176.626107 L297.086944,187.931107 L325.681944,187.931107 L325.681944,201.611107 L337.081944,201.611107 Z M325.681944,177.671107 L308.676944,177.671107 L325.491944,150.501107 L325.681944,150.501107 L325.681944,177.671107 Z" id="404" fill="#EC0000" fill-rule="nonzero"></path>
                </g>
                <g id="dame" transform="translate(455.684565, 194.234231)" fill="#000000" font-family="Amsterdam Sans" font-weight="600">
                    <text id="?" transform="translate(32.237414, 44.832677) rotate(18.000000) translate(-32.237414, -44.832677) " font-size="68">
                        <tspan x="11.4646199" y="72.4423007">?</tspan>
                    </text>
                    <text id="?-copy-2" transform="translate(70.035760, 57.255427) rotate(18.000000) translate(-70.035760, -57.255427) " font-size="34">
                        <tspan x="49.262966" y="50.8650504">?</tspan>
                    </text>
                    <text id="?-copy-3" transform="translate(52.141798, 82.013098) rotate(18.000000) translate(-52.141798, -82.013098) " font-size="51">
                        <tspan x="31.3690037" y="92.6227214">?</tspan>
                    </text>
                </g>
                <g id="Group-18" transform="translate(346.545978, 228.987088)">
                    <path d="M86.945067,91.4262341 C84.6202121,86.7536318 69.1907045,55.1052511 69.1907045,55.1052511 L61.3301173,21.4236823 C61.3301173,21.4236823 59.4215658,10.5599455 53.4161145,13.5630951 C49.5362691,15.5038657 50.3290259,22.6827667 50.3290259,22.6827667 L57.5961053,58.628144 C57.5961053,58.628144 64.5164065,86.1016211 72.0904141,97.6580662 C75.2834862,102.52907 80.5563793,105.922239 84.1284485,104.630935 C89.9253242,102.534157 89.2775528,96.1166416 86.945067,91.4262341" id="Fill-1" fill="#000000"></path>
                    <path d="M71.1378341,176.548822 L62.8329639,217.018424 L62.8329639,268.941032 C62.8329639,268.941032 48.1478847,270.513828 48.1478847,279.430859 L74.4267153,279.430859 L83.4404034,235.610481 L86.0747302,214.727484 L92.4998763,234.718523 L110.299176,272.089167 C110.299176,272.089167 102.518288,283.188611 106.189558,288.845589 L127.73474,275.530665 L108.58309,218.988022 L103.828245,176.548822 L71.1378341,176.548822 Z" id="Fill-3" fill="#000000"></path>
                    <path d="M117.92603,76.8044781 C112.765903,85.7630548 101.320529,88.8416646 92.3628001,83.6815381 C83.4033756,78.5214115 80.3247658,67.0760371 85.4848923,58.1174604 C90.6450189,49.1597317 102.090393,46.080274 111.04897,51.2412484 C120.006699,56.401375 123.086156,67.8467494 117.92603,76.8044781" id="Fill-5" fill="#000000"></path>
                    <path d="M119.02563,66.5749469 C119.02563,66.5749469 129.100849,66.0441813 131.577473,66.7945448 C134.497531,67.6805672 136.586679,70.5879076 136.861388,73.0696182 C137.303128,77.0520557 136.261945,85.8503852 129.285685,96.1502895 C122.307729,106.450194 125.384643,116.127763 125.384643,116.127763 C125.384643,116.127763 111.526235,113.514633 114.615867,96.4996113 C115.356056,92.4230604 122.652811,84.6184325 122.946173,78.672332 C123.239536,72.7253837 119.138397,72.8534118 119.138397,72.8534118" id="Fill-7" fill="#000000"></path>
                    <path d="M119.255209,194.535415 L59.1973046,194.535415 L70.4374949,141.050186 C70.4374949,141.050186 64.2531434,126.616076 63.8164912,118.64357 C62.8931626,101.755729 80.6763526,89.3844824 80.6763526,89.3844824 C80.6763526,89.3844824 102.624272,80.3344565 103.739219,102.171305 C104.923691,125.335915 104.470929,137.350937 104.470929,137.350937 L119.255209,194.535415 Z" id="Fill-9" fill="#FF0000"></path>
                    <g id="Group" transform="translate(47.898389, 84.505461) rotate(-3.000000) translate(-47.898389, -84.505461) translate(1.468834, 55.224182)">
                        <path d="M85.7470425,43.4275608 C81.1770323,41.2926284 46.6577695,28.9722539 46.6577695,28.9722539 L22.4714779,8.4436662 C22.4714779,8.4436662 12.4344128,2.93930509 10.0815782,9.2279444 C8.56050246,13.2909294 14.6498927,17.4319182 14.6498927,17.4319182 L43.3027546,42.917992 C43.3027546,42.917992 64.882699,53.2272228 78.0051569,57.553047 C83.5374977,59.3768117 89.7752649,58.7485413 91.7660597,55.5130758 C94.9955901,50.2630752 90.4934094,45.6447365 85.7470425,43.4275608" id="Fill-11" fill="#000000"></path>
                        <g id="Group-15" transform="translate(0.000000, 0.000000)">
                            <mask id="mask-2" fill="white">
                                <use xlink:href="#path-1"></use>
                            </mask>
                            <g id="Clip-14"></g>
                            <path d="M16.7095344,17.6424439 L20.4155668,7.44513169 L0.582231173,0 C-2.55149013,8.34726358 7.97903437,13.9805007 7.97903437,13.9805007 L16.7095344,17.6424439 Z" id="Fill-13" fill="#000000" mask="url(#mask-2)"></path>
                        </g>
                    </g>
                    <path d="M61.1157762,21.8911121 L50.2910414,21.1492273 L51.5179069,0 C60.4188285,0.516351805 61.304003,12.4255102 61.304003,12.4255102 L61.1157762,21.8911121 Z" id="Fill-16" fill="#000000"></path>
                </g>
            </g>
        </g>
    </g>
</svg>