<?xml version="1.0" encoding="UTF-8" standalone="no"?><!-- Generator: Gravit.io --><svg xmlns="http://www.w3.org/2000/svg" xmlns:xlink="http://www.w3.org/1999/xlink" style="isolation:isolate" viewBox="0 0 135 40" width="135pt" height="40pt"><defs><clipPath id="_clipPath_nQs003sTBDAZK0efvCOgufrsb6um4XL3"><rect width="135" height="40"/></clipPath></defs><g clip-path="url(#_clipPath_nQs003sTBDAZK0efvCOgufrsb6um4XL3)"><path d=" M 130 40 L 5 40 C 2.25 40 0 37.75 0 35 L 0 5 C 0 2.25 2.25 0 5 0 L 130 0 C 132.75 0 135 2.25 135 5 L 135 35 C 135 37.75 132.75 40 130 40 Z " fill="rgb(0,0,0)"/><path d=" M 130 0 L 5 0 C 2.25 0 0 2.25 0 5 L 0 35 C 0 37.75 2.25 40 5 40 L 130 40 C 132.75 40 135 37.75 135 35 L 135 5 C 135 2.25 132.75 0 130 0 Z  M 130 0.8 C 132.316 0.8 134.2 2.684 134.2 5 L 134.2 35 C 134.2 37.316 132.316 39.2 130 39.2 L 5 39.2 C 2.684 39.2 0.8 37.316 0.8 35 L 0.8 5 C 0.8 2.684 2.684 0.8 5 0.8 L 130 0.8 Z " fill="rgb(166,166,166)"/><path d=" M 106.936 30 L 108.802 30 L 108.802 17.499 L 106.936 17.499 L 106.936 30 Z  M 123.743 22.002 L 121.604 27.422 L 121.54 27.422 L 119.32 22.002 L 117.31 22.002 L 120.639 29.577 L 118.741 33.791 L 120.688 33.791 L 125.818 22.002 L 123.743 22.002 Z  M 113.161 28.58 C 112.549 28.58 111.697 28.275 111.697 27.518 C 111.697 26.553 112.759 26.184 113.675 26.184 C 114.496 26.184 114.881 26.36 115.38 26.602 C 115.235 27.76 114.238 28.58 113.161 28.58 L 113.161 28.58 Z  M 113.386 21.728 C 112.035 21.728 110.636 22.324 110.057 23.643 L 111.713 24.334 C 112.067 23.643 112.726 23.417 113.418 23.417 C 114.383 23.417 115.364 23.996 115.38 25.026 L 115.38 25.154 C 115.042 24.961 114.319 24.672 113.434 24.672 C 111.649 24.672 109.831 25.653 109.831 27.486 C 109.831 29.159 111.295 30.237 112.935 30.237 C 114.19 30.237 114.881 29.674 115.316 29.014 L 115.38 29.014 L 115.38 29.979 L 117.181 29.979 L 117.181 25.186 C 117.181 22.967 115.525 21.728 113.386 21.728 L 113.386 21.728 Z  M 101.854 23.524 L 99.2 23.524 L 99.2 19.239 L 101.854 19.239 C 103.249 19.239 104.041 20.394 104.041 21.381 C 104.041 22.35 103.249 23.524 101.854 23.524 Z  M 101.806 17.499 L 97.335 17.499 L 97.335 30 L 99.2 30 L 99.2 25.264 L 101.806 25.264 C 103.874 25.264 105.907 23.766 105.907 21.381 C 105.907 18.996 103.874 17.499 101.806 17.499 Z  M 77.425 28.582 C 76.136 28.582 75.057 27.503 75.057 26.021 C 75.057 24.523 76.136 23.427 77.425 23.427 C 78.698 23.427 79.697 24.523 79.697 26.021 C 79.697 27.503 78.698 28.582 77.425 28.582 L 77.425 28.582 Z  M 79.568 22.702 L 79.503 22.702 C 79.084 22.203 78.279 21.752 77.264 21.752 C 75.137 21.752 73.188 23.62 73.188 26.021 C 73.188 28.405 75.137 30.258 77.264 30.258 C 78.279 30.258 79.084 29.807 79.503 29.291 L 79.568 29.291 L 79.568 29.903 C 79.568 31.531 78.698 32.401 77.296 32.401 C 76.152 32.401 75.443 31.579 75.153 30.886 L 73.526 31.563 C 73.993 32.691 75.234 34.076 77.296 34.076 C 79.487 34.076 81.34 32.787 81.34 29.646 L 81.34 22.009 L 79.568 22.009 L 79.568 22.702 Z  M 82.628 30 L 84.497 30 L 84.497 17.498 L 82.628 17.498 L 82.628 30 Z  M 87.252 25.876 C 87.204 24.232 88.525 23.395 89.475 23.395 C 90.217 23.395 90.845 23.765 91.054 24.297 L 87.252 25.876 Z  M 93.052 24.458 C 92.698 23.507 91.618 21.752 89.411 21.752 C 87.22 21.752 85.4 23.475 85.4 26.005 C 85.4 28.389 87.204 30.258 89.62 30.258 C 91.57 30.258 92.698 29.066 93.165 28.373 L 91.715 27.406 C 91.232 28.115 90.571 28.582 89.62 28.582 C 88.67 28.582 87.993 28.147 87.558 27.294 L 93.245 24.941 L 93.052 24.458 Z  M 47.744 23.057 L 47.744 24.861 L 52.061 24.861 C 51.932 25.876 51.594 26.617 51.078 27.132 C 50.45 27.761 49.468 28.454 47.744 28.454 C 45.085 28.454 43.007 26.311 43.007 23.653 C 43.007 20.995 45.085 18.852 47.744 18.852 C 49.178 18.852 50.225 19.416 50.998 20.141 L 52.271 18.868 C 51.191 17.837 49.757 17.047 47.744 17.047 C 44.103 17.047 41.042 20.012 41.042 23.653 C 41.042 27.294 44.103 30.258 47.744 30.258 C 49.709 30.258 51.191 29.614 52.351 28.405 C 53.543 27.213 53.914 25.538 53.914 24.184 C 53.914 23.765 53.882 23.379 53.817 23.057 L 47.744 23.057 Z  M 58.823 28.582 C 57.534 28.582 56.422 27.519 56.422 26.005 C 56.422 24.474 57.534 23.427 58.823 23.427 C 60.111 23.427 61.223 24.474 61.223 26.005 C 61.223 27.519 60.111 28.582 58.823 28.582 L 58.823 28.582 Z  M 58.823 21.752 C 56.47 21.752 54.553 23.54 54.553 26.005 C 54.553 28.454 56.47 30.258 58.823 30.258 C 61.175 30.258 63.092 28.454 63.092 26.005 C 63.092 23.54 61.175 21.752 58.823 21.752 Z  M 68.136 28.582 C 66.847 28.582 65.735 27.519 65.735 26.005 C 65.735 24.474 66.847 23.427 68.136 23.427 C 69.425 23.427 70.536 24.474 70.536 26.005 C 70.536 27.519 69.425 28.582 68.136 28.582 Z  M 68.136 21.752 C 65.784 21.752 63.867 23.54 63.867 26.005 C 63.867 28.454 65.784 30.258 68.136 30.258 C 70.488 30.258 72.405 28.454 72.405 26.005 C 72.405 23.54 70.488 21.752 68.136 21.752 Z " fill="rgb(255,255,255)"/><g><clipPath id="_clipPath_cR0hk86i1PCS42EjvaAluZ4Ukot9XNDz"><path d=" M 10.51 32.39 L 10.436 32.318 C 10.145 32.01 9.973 31.532 9.973 30.913 L 9.973 31.059 L 9.973 31.059 L 9.973 8.943 C 9.973 8.941 9.973 8.939 9.973 8.938 C 9.973 8.94 9.973 8.941 9.973 8.943 L 9.973 9.09 C 9.973 8.419 10.173 7.914 10.509 7.611 L 22.898 20.001 L 10.51 32.39 Z  M 9.973 8.937 C 9.973 8.882 9.974 8.828 9.977 8.775 C 9.974 8.828 9.973 8.882 9.973 8.937 Z  M 9.977 8.773 C 9.977 8.772 9.977 8.771 9.977 8.771 C 9.977 8.771 9.977 8.772 9.977 8.773 Z  M 9.977 8.766 C 9.977 8.766 9.977 8.765 9.977 8.765 C 9.977 8.765 9.977 8.766 9.977 8.766 Z " fill="rgb(255,255,255)"/></clipPath><g clip-path="url(#_clipPath_cR0hk86i1PCS42EjvaAluZ4Ukot9XNDz)"><g><linearGradient id="_lgradient_24" x1="0.9150065373635474" y1="0.9556707105439463" x2="-0.12049917872697291" y2="-0.0798350055465743" gradientTransform="matrix(12.926,0,0,-24.778,9.973,32.39)" gradientUnits="userSpaceOnUse"><stop offset="0%" stop-opacity="1" style="stop-color:rgb(0,160,255)"/><stop offset="0.657445%" stop-opacity="1" style="stop-color:rgb(0,161,255)"/><stop offset="26.009999999999998%" stop-opacity="1" style="stop-color:rgb(0,190,255)"/><stop offset="51.22%" stop-opacity="1" style="stop-color:rgb(0,210,255)"/><stop offset="76.03999999999999%" stop-opacity="1" style="stop-color:rgb(0,223,255)"/><stop offset="100%" stop-opacity="1" style="stop-color:rgb(0,227,255)"/></linearGradient><path d=" M 10.51 32.39 L 10.436 32.318 C 10.145 32.01 9.973 31.532 9.973 30.913 L 9.973 31.059 L 9.973 31.059 L 9.973 8.943 C 9.973 8.941 9.973 8.939 9.973 8.938 C 9.973 8.94 9.973 8.941 9.973 8.943 L 9.973 9.09 C 9.973 8.419 10.173 7.914 10.509 7.611 L 22.898 20.001 L 10.51 32.39 Z  M 9.973 8.937 C 9.973 8.882 9.974 8.828 9.977 8.775 C 9.974 8.828 9.973 8.882 9.973 8.937 Z  M 9.977 8.773 C 9.977 8.772 9.977 8.771 9.977 8.771 C 9.977 8.771 9.977 8.772 9.977 8.773 Z  M 9.977 8.766 C 9.977 8.766 9.977 8.765 9.977 8.765 C 9.977 8.765 9.977 8.766 9.977 8.766 Z " fill="url(#_lgradient_24)"/></g></g></g><g><clipPath id="_clipPath_Ywjt21CoIjEDRRotPhkTWM7viULBRrPF"><path d=" M 27.028 24.278 L 27.028 24.278 L 27.122 24.225 L 32.015 21.445 C 32.481 21.18 32.792 20.858 32.947 20.518 C 32.793 20.858 32.482 21.18 32.015 21.445 L 27.122 24.225 L 27.028 24.278 M 27.029 24.132 L 22.898 20.001 L 27.029 15.87 L 32.015 18.703 C 32.648 19.063 33.003 19.527 33.063 20 C 33.063 20.001 33.063 20.002 33.063 20.002 C 33.003 20.475 32.648 20.939 32.015 21.299 L 27.029 24.132" fill="rgb(255,255,255)"/></clipPath><g clip-path="url(#_clipPath_Ywjt21CoIjEDRRotPhkTWM7viULBRrPF)"><g><linearGradient id="_lgradient_25" x1="1.0759014216144425" y1="0.5086820009038799" x2="-1.3046386934920564" y2="0.5086820009038796" gradientTransform="matrix(10.164,0,0,-8.408,22.898,24.278)" gradientUnits="userSpaceOnUse"><stop offset="0%" stop-opacity="1" style="stop-color:rgb(255,224,0)"/><stop offset="40.87%" stop-opacity="1" style="stop-color:rgb(255,189,0)"/><stop offset="77.53999999999999%" stop-opacity="1" style="stop-color:rgb(255,165,0)"/><stop offset="100%" stop-opacity="1" style="stop-color:rgb(255,156,0)"/></linearGradient><path d=" M 27.028 24.278 L 27.028 24.278 L 27.122 24.225 L 32.015 21.445 C 32.481 21.18 32.792 20.858 32.947 20.518 C 32.793 20.858 32.482 21.18 32.015 21.445 L 27.122 24.225 L 27.028 24.278 M 27.029 24.132 L 22.898 20.001 L 27.029 15.87 L 32.015 18.703 C 32.648 19.063 33.003 19.527 33.063 20 C 33.063 20.001 33.063 20.002 33.063 20.002 C 33.003 20.475 32.648 20.939 32.015 21.299 L 27.029 24.132" fill="url(#_lgradient_25)"/></g></g></g><g><clipPath id="_clipPath_zUvnzUSSWvIL41VWdUr8XWwlikA3ul3j"><path d=" M 11.393 32.861 C 11.047 32.861 10.745 32.749 10.509 32.536 L 10.51 32.536 C 10.745 32.748 11.048 32.861 11.394 32.861 C 11.424 32.861 11.454 32.86 11.485 32.859 C 11.454 32.86 11.423 32.861 11.393 32.861 M 11.393 32.715 C 11.047 32.715 10.745 32.602 10.51 32.39 L 10.51 32.39 L 10.51 32.39 L 22.898 20.001 L 27.029 24.132 L 27.029 24.132 L 12.514 32.379 C 12.112 32.607 11.732 32.715 11.393 32.715 M 10.506 32.534 C 10.484 32.514 10.463 32.493 10.442 32.471 L 10.506 32.534 Z " fill="rgb(255,255,255)"/></clipPath><g clip-path="url(#_clipPath_zUvnzUSSWvIL41VWdUr8XWwlikA3ul3j)"><g><linearGradient id="_lgradient_26" x1="0.8672522623002215" y1="0.8215232689242253" x2="-0.5047958956056213" y2="-0.5505248889816177" gradientTransform="matrix(16.587,0,0,-12.86,10.442,32.861)" gradientUnits="userSpaceOnUse"><stop offset="0%" stop-opacity="1" style="stop-color:rgb(255,58,68)"/><stop offset="100%" stop-opacity="1" style="stop-color:rgb(195,17,98)"/></linearGradient><path d=" M 11.393 32.861 C 11.047 32.861 10.745 32.749 10.509 32.536 L 10.51 32.536 C 10.745 32.748 11.048 32.861 11.394 32.861 C 11.424 32.861 11.454 32.86 11.485 32.859 C 11.454 32.86 11.423 32.861 11.393 32.861 M 11.393 32.715 C 11.047 32.715 10.745 32.602 10.51 32.39 L 10.51 32.39 L 10.51 32.39 L 22.898 20.001 L 27.029 24.132 L 27.029 24.132 L 12.514 32.379 C 12.112 32.607 11.732 32.715 11.393 32.715 M 10.506 32.534 C 10.484 32.514 10.463 32.493 10.442 32.471 L 10.506 32.534 Z " fill="url(#_lgradient_26)"/></g></g></g><g><clipPath id="_clipPath_W4v4aDPfpi4O2zqzkJbpH9BrFQR06gmC"><path d=" M 22.898 20.001 L 22.898 20.001 L 10.509 7.611 C 10.744 7.399 11.046 7.287 11.391 7.287 C 11.731 7.287 12.111 7.395 12.514 7.623 L 27.029 15.87 L 22.898 20.001 M 27.122 15.777 L 12.514 7.477 C 12.111 7.249 11.731 7.141 11.391 7.141 C 11.39 7.141 11.389 7.141 11.387 7.141 C 11.389 7.141 11.391 7.141 11.393 7.141 C 11.731 7.141 12.112 7.248 12.514 7.477 L 27.122 15.777 M 11.384 7.141 L 11.384 7.141 L 11.384 7.141 Z " fill="rgb(255,255,255)"/></clipPath><g clip-path="url(#_clipPath_W4v4aDPfpi4O2zqzkJbpH9BrFQR06gmC)"><g><linearGradient id="_lgradient_27" x1="-0.19329693679160664" y1="1.541546787763799" x2="0.4184117544377095" y2="0.9298380965344829" gradientTransform="matrix(16.613,0,0,-12.86,10.509,20.001)" gradientUnits="userSpaceOnUse"><stop offset="0%" stop-opacity="1" style="stop-color:rgb(50,160,113)"/><stop offset="6.8500000000000005%" stop-opacity="1" style="stop-color:rgb(45,167,113)"/><stop offset="47.620000000000005%" stop-opacity="1" style="stop-color:rgb(21,207,116)"/><stop offset="80.08999999999999%" stop-opacity="1" style="stop-color:rgb(6,231,117)"/><stop offset="100%" stop-opacity="1" style="stop-color:rgb(0,240,118)"/></linearGradient><path d=" M 22.898 20.001 L 22.898 20.001 L 10.509 7.611 C 10.744 7.399 11.046 7.287 11.391 7.287 C 11.731 7.287 12.111 7.395 12.514 7.623 L 27.029 15.87 L 22.898 20.001 M 27.122 15.777 L 12.514 7.477 C 12.111 7.249 11.731 7.141 11.391 7.141 C 11.39 7.141 11.389 7.141 11.387 7.141 C 11.389 7.141 11.391 7.141 11.393 7.141 C 11.731 7.141 12.112 7.248 12.514 7.477 L 27.122 15.777 M 11.384 7.141 L 11.384 7.141 L 11.384 7.141 Z " fill="url(#_lgradient_27)"/></g></g></g><path d=" M 11.485 32.859 C 11.8 32.841 12.148 32.733 12.514 32.525 L 27.028 24.278 L 27.028 24.278 L 12.514 32.525 C 12.148 32.733 11.8 32.841 11.485 32.859 M 10.509 32.536 L 10.506 32.534 C 10.507 32.534 10.509 32.535 10.509 32.536 L 10.509 32.536 Z  M 10.442 32.471 L 10.436 32.464 L 10.436 32.464 C 10.438 32.466 10.44 32.469 10.442 32.471 Z " fill="rgb(0,0,0)"/><g><clipPath id="_clipPath_7ZAVquOAP2InZups1iFSk1UVkfcYUGct"><path d=" M 27.028 24.278 L 27.028 24.278 L 27.122 24.225 L 27.028 24.278 Z " fill="rgb(255,255,255)"/></clipPath><g clip-path="url(#_clipPath_7ZAVquOAP2InZups1iFSk1UVkfcYUGct)"><g><linearGradient id="_lgradient_28" x1="72.25796178343893" y1="79.94579439251964" x2="-184.61040339702618" y2="79.94579439251962" gradientTransform="matrix(0.094,0,0,-0.054,27.028,24.278)" gradientUnits="userSpaceOnUse"><stop offset="0%" stop-opacity="1" style="stop-color:rgb(204,179,0)"/><stop offset="40.87%" stop-opacity="1" style="stop-color:rgb(204,151,0)"/><stop offset="77.53999999999999%" stop-opacity="1" style="stop-color:rgb(204,132,0)"/><stop offset="100%" stop-opacity="1" style="stop-color:rgb(204,125,0)"/></linearGradient><path d=" M 27.028 24.278 L 27.028 24.278 L 27.122 24.225 L 27.028 24.278 Z " fill="url(#_lgradient_28)"/></g></g></g><g><clipPath id="_clipPath_5kvND37SlGb85pxw48W4oyvGpOI1OSwM"><path d=" M 11.394 32.861 C 11.048 32.861 10.745 32.748 10.51 32.536 L 10.509 32.536 C 10.509 32.535 10.507 32.534 10.506 32.534 L 10.442 32.471 C 10.44 32.469 10.438 32.466 10.435 32.464 L 10.51 32.39 C 10.745 32.602 11.047 32.715 11.393 32.715 C 11.732 32.715 12.112 32.607 12.514 32.379 L 27.029 24.132 L 27.122 24.225 L 27.028 24.279 L 12.514 32.525 C 12.148 32.733 11.8 32.841 11.485 32.859 C 11.454 32.861 11.424 32.861 11.394 32.861" fill="rgb(255,255,255)"/></clipPath><g clip-path="url(#_clipPath_5kvND37SlGb85pxw48W4oyvGpOI1OSwM)"><g><linearGradient id="_lgradient_29" x1="0.8624688368971136" y1="1.2103146873174255" x2="-0.5014143254386805" y2="-0.1535684750183688" gradientTransform="matrix(16.686,0,0,-8.729,10.435,32.861)" gradientUnits="userSpaceOnUse"><stop offset="0%" stop-opacity="1" style="stop-color:rgb(204,46,54)"/><stop offset="100%" stop-opacity="1" style="stop-color:rgb(156,14,78)"/></linearGradient><path d=" M 11.394 32.861 C 11.048 32.861 10.745 32.748 10.51 32.536 L 10.509 32.536 C 10.509 32.535 10.507 32.534 10.506 32.534 L 10.442 32.471 C 10.44 32.469 10.438 32.466 10.435 32.464 L 10.51 32.39 C 10.745 32.602 11.047 32.715 11.393 32.715 C 11.732 32.715 12.112 32.607 12.514 32.379 L 27.029 24.132 L 27.122 24.225 L 27.028 24.279 L 12.514 32.525 C 12.148 32.733 11.8 32.841 11.485 32.859 C 11.454 32.861 11.424 32.861 11.394 32.861" fill="url(#_lgradient_29)"/></g></g></g><path d=" M 10.435 32.464 C 10.144 32.157 9.973 31.678 9.973 31.059 L 9.973 31.059 C 9.973 31.678 10.144 32.156 10.435 32.464 L 10.435 32.464 L 10.435 32.464 L 10.435 32.464" fill="rgb(0,0,0)"/><g><clipPath id="_clipPath_Rejov8GQSrQWaGJitZ4HsyFrUGrjRom8"><path d=" M 10.435 32.464 L 10.435 32.464 C 10.144 32.156 9.973 31.678 9.973 31.059 L 9.973 30.913 C 9.973 31.532 10.144 32.01 10.435 32.318 L 10.51 32.39 L 10.435 32.464" fill="rgb(255,255,255)"/></clipPath><g clip-path="url(#_clipPath_Rejov8GQSrQWaGJitZ4HsyFrUGrjRom8)"><g><linearGradient id="_lgradient_30" x1="22.020294172407453" y1="15.317513541397982" x2="-1.3619257323663696" y2="-8.064706363375844" gradientTransform="matrix(0.537,0,0,-1.551,9.973,32.464)" gradientUnits="userSpaceOnUse"><stop offset="0%" stop-opacity="1" style="stop-color:rgb(0,141,224)"/><stop offset="0.657445%" stop-opacity="1" style="stop-color:rgb(0,141,224)"/><stop offset="26.009999999999998%" stop-opacity="1" style="stop-color:rgb(0,167,224)"/><stop offset="51.22%" stop-opacity="1" style="stop-color:rgb(0,184,224)"/><stop offset="76.03999999999999%" stop-opacity="1" style="stop-color:rgb(0,196,224)"/><stop offset="100%" stop-opacity="1" style="stop-color:rgb(0,199,224)"/></linearGradient><path d=" M 10.435 32.464 L 10.435 32.464 C 10.144 32.156 9.973 31.678 9.973 31.059 L 9.973 30.913 C 9.973 31.532 10.144 32.01 10.435 32.318 L 10.51 32.39 L 10.435 32.464" fill="url(#_lgradient_30)"/></g></g></g><g><clipPath id="_clipPath_9vusZjEiKIXmbKNBxhGYekOkOE4ZpE4u"><path d=" M 10.435 32.464 L 10.435 32.464 L 10.435 32.464 L 10.51 32.389 L 10.51 32.39 L 10.435 32.464" fill="rgb(255,255,255)"/></clipPath><g clip-path="url(#_clipPath_9vusZjEiKIXmbKNBxhGYekOkOE4ZpE4u)"><g><linearGradient id="_lgradient_31" x1="193.69448183041857" y1="136.300268096513" x2="-111.99307458722285" y2="-169.38728832112847" gradientTransform="matrix(0.074,0,0,-0.075,10.435,32.464)" gradientUnits="userSpaceOnUse"><stop offset="0%" stop-opacity="1" style="stop-color:rgb(224,51,60)"/><stop offset="100%" stop-opacity="1" style="stop-color:rgb(171,15,86)"/></linearGradient><path d=" M 10.435 32.464 L 10.435 32.464 L 10.435 32.464 L 10.51 32.389 L 10.51 32.39 L 10.435 32.464" fill="url(#_lgradient_31)"/></g></g></g><path d=" M 32.947 20.518 C 33.024 20.349 33.063 20.176 33.063 20.002 C 33.063 20.002 33.063 20.002 33.063 20.002 C 33.063 20.175 33.024 20.349 32.947 20.518 Z " fill="rgb(0,0,0)"/><g><clipPath id="_clipPath_kROxTBTbeHfZXb9lMy3em1eDbNSbRqo6"><path d=" M 27.122 24.225 L 27.122 24.225 L 27.029 24.132 L 32.015 21.299 C 32.648 20.939 33.003 20.475 33.063 20.002 C 33.063 20.176 33.024 20.349 32.947 20.518 C 32.792 20.858 32.481 21.18 32.015 21.445 L 27.122 24.225 Z " fill="rgb(255,255,255)"/></clipPath><g clip-path="url(#_clipPath_kROxTBTbeHfZXb9lMy3em1eDbNSbRqo6)"><g><linearGradient id="_lgradient_32" x1="1.1278588001325822" y1="1.0002131337769677" x2="-2.8822505800464047" y2="1.0002131337769673" gradientTransform="matrix(6.034,0,0,-4.223,27.029,24.225)" gradientUnits="userSpaceOnUse"><stop offset="0%" stop-opacity="1" style="stop-color:rgb(224,197,0)"/><stop offset="40.87%" stop-opacity="1" style="stop-color:rgb(224,166,0)"/><stop offset="77.53999999999999%" stop-opacity="1" style="stop-color:rgb(224,145,0)"/><stop offset="100%" stop-opacity="1" style="stop-color:rgb(224,137,0)"/></linearGradient><path d=" M 27.122 24.225 L 27.122 24.225 L 27.029 24.132 L 32.015 21.299 C 32.648 20.939 33.003 20.475 33.063 20.002 C 33.063 20.176 33.024 20.349 32.947 20.518 C 32.792 20.858 32.481 21.18 32.015 21.445 L 27.122 24.225 Z " fill="url(#_lgradient_32)"/></g></g></g><path d=" M 33.063 20.001 L 33.063 20 C 33.062 19.477 32.713 18.954 32.015 18.557 L 27.122 15.777 L 27.121 15.777 L 27.122 15.777 L 32.015 18.557 C 32.714 18.954 33.064 19.478 33.063 20.001 Z " fill="rgb(64,64,64)"/><g><clipPath id="_clipPath_qI1Qbtb4WchGqbSRU5o4idFfrizIiOKC"><path d=" M 33.063 20 C 33.003 19.527 32.648 19.063 32.015 18.703 L 27.029 15.87 L 27.121 15.777 L 27.122 15.777 L 32.015 18.557 C 32.713 18.954 33.062 19.477 33.063 20 Z " fill="rgb(255,255,255)"/></clipPath><g clip-path="url(#_clipPath_qI1Qbtb4WchGqbSRU5o4idFfrizIiOKC)"><g><linearGradient id="_lgradient_33" x1="1.127850324804454" y1="-0.00023679287726974252" x2="-2.8819932387644176" y2="-0.00023679287727023358" gradientTransform="matrix(6.034,0,0,-4.223,27.029,20)" gradientUnits="userSpaceOnUse"><stop offset="0%" stop-opacity="1" style="stop-color:rgb(255,232,64)"/><stop offset="40.87%" stop-opacity="1" style="stop-color:rgb(255,206,64)"/><stop offset="77.53999999999999%" stop-opacity="1" style="stop-color:rgb(255,188,64)"/><stop offset="100%" stop-opacity="1" style="stop-color:rgb(255,181,64)"/></linearGradient><path d=" M 33.063 20 C 33.003 19.527 32.648 19.063 32.015 18.703 L 27.029 15.87 L 27.121 15.777 L 27.122 15.777 L 32.015 18.557 C 32.713 18.954 33.062 19.477 33.063 20 Z " fill="url(#_lgradient_33)"/></g></g></g><path d=" M 9.973 8.938 C 9.973 8.937 9.973 8.937 9.973 8.937 C 9.973 8.937 9.973 8.937 9.973 8.938 Z  M 9.977 8.775 C 9.977 8.775 9.977 8.774 9.977 8.773 C 9.977 8.774 9.977 8.775 9.977 8.775 Z  M 9.977 8.771 C 9.977 8.769 9.977 8.768 9.977 8.766 C 9.977 8.768 9.977 8.769 9.977 8.771 Z  M 9.977 8.765 C 10.035 7.737 10.594 7.144 11.384 7.141 C 11.041 7.143 10.743 7.255 10.509 7.466 L 10.509 7.465 L 10.507 7.468 C 10.482 7.49 10.459 7.514 10.435 7.538 L 10.435 7.538 C 10.173 7.816 10.007 8.232 9.977 8.765 Z " fill="rgb(64,64,64)"/><g><clipPath id="_clipPath_DdNebrj4WuMZpuBP51iR55YGOecdKjQb"><path d=" M 9.973 9.089 L 9.973 8.943 C 9.973 8.941 9.973 8.94 9.973 8.938 C 9.973 8.937 9.973 8.937 9.973 8.937 C 9.973 8.882 9.974 8.828 9.977 8.775 C 9.977 8.775 9.977 8.774 9.977 8.773 C 9.977 8.772 9.977 8.771 9.977 8.771 C 9.977 8.769 9.977 8.768 9.977 8.766 C 9.977 8.766 9.977 8.765 9.977 8.765 C 10.007 8.232 10.173 7.816 10.435 7.538 L 10.435 7.538 L 10.435 7.538 L 10.509 7.611 C 10.173 7.914 9.973 8.419 9.973 9.089 M 10.507 7.468 L 10.509 7.465 C 10.509 7.466 10.507 7.467 10.507 7.468 Z " fill="rgb(255,255,255)"/></clipPath><g clip-path="url(#_clipPath_DdNebrj4WuMZpuBP51iR55YGOecdKjQb)"><g><linearGradient id="_lgradient_34" x1="22.036705794671178" y1="0.23382380102197686" x2="-1.2501293184407167" y2="-23.05301131208992" gradientTransform="matrix(0.537,0,0,-1.624,9.973,9.089)" gradientUnits="userSpaceOnUse"><stop offset="0%" stop-opacity="1" style="stop-color:rgb(64,184,255)"/><stop offset="0.657445%" stop-opacity="1" style="stop-color:rgb(64,185,255)"/><stop offset="26.009999999999998%" stop-opacity="1" style="stop-color:rgb(64,206,255)"/><stop offset="51.22%" stop-opacity="1" style="stop-color:rgb(64,221,255)"/><stop offset="76.03999999999999%" stop-opacity="1" style="stop-color:rgb(64,231,255)"/><stop offset="100%" stop-opacity="1" style="stop-color:rgb(64,234,255)"/></linearGradient><path d=" M 9.973 9.089 L 9.973 8.943 C 9.973 8.941 9.973 8.94 9.973 8.938 C 9.973 8.937 9.973 8.937 9.973 8.937 C 9.973 8.882 9.974 8.828 9.977 8.775 C 9.977 8.775 9.977 8.774 9.977 8.773 C 9.977 8.772 9.977 8.771 9.977 8.771 C 9.977 8.769 9.977 8.768 9.977 8.766 C 9.977 8.766 9.977 8.765 9.977 8.765 C 10.007 8.232 10.173 7.816 10.435 7.538 L 10.435 7.538 L 10.435 7.538 L 10.509 7.611 C 10.173 7.914 9.973 8.419 9.973 9.089 M 10.507 7.468 L 10.509 7.465 C 10.509 7.466 10.507 7.467 10.507 7.468 Z " fill="url(#_lgradient_34)"/></g></g></g><path d=" M 11.384 7.141 C 11.385 7.141 11.386 7.141 11.387 7.141 C 11.386 7.141 11.385 7.141 11.384 7.141 Z " fill="rgb(64,64,64)"/><g><clipPath id="_clipPath_wB6x6SUNEVO8zliTFtTsxfpBJbGv2hiA"><path d=" M 27.029 15.87 L 12.514 7.623 C 12.111 7.395 11.731 7.287 11.391 7.287 C 11.046 7.287 10.744 7.399 10.509 7.611 L 10.435 7.538 L 10.435 7.538 C 10.459 7.514 10.482 7.49 10.507 7.468 C 10.507 7.467 10.509 7.466 10.509 7.466 C 10.743 7.255 11.041 7.143 11.384 7.141 L 11.384 7.141 C 11.385 7.141 11.386 7.141 11.387 7.141 C 11.389 7.141 11.39 7.141 11.391 7.141 C 11.731 7.141 12.111 7.249 12.514 7.477 L 27.122 15.777 L 27.121 15.777 L 27.029 15.87 Z " fill="rgb(255,255,255)"/></clipPath><g clip-path="url(#_clipPath_wB6x6SUNEVO8zliTFtTsxfpBJbGv2hiA)"><g><linearGradient id="_lgradient_35" x1="-0.18806932591811276" y1="1.7977822834690773" x2="0.4209595838527185" y2="1.1887533736982463" gradientTransform="matrix(16.686,0,0,-8.73,10.435,15.87)" gradientUnits="userSpaceOnUse"><stop offset="0%" stop-opacity="1" style="stop-color:rgb(101,184,149)"/><stop offset="6.8500000000000005%" stop-opacity="1" style="stop-color:rgb(98,189,149)"/><stop offset="47.620000000000005%" stop-opacity="1" style="stop-color:rgb(80,219,151)"/><stop offset="80.08999999999999%" stop-opacity="1" style="stop-color:rgb(68,237,152)"/><stop offset="100%" stop-opacity="1" style="stop-color:rgb(64,244,152)"/></linearGradient><path d=" M 27.029 15.87 L 12.514 7.623 C 12.111 7.395 11.731 7.287 11.391 7.287 C 11.046 7.287 10.744 7.399 10.509 7.611 L 10.435 7.538 L 10.435 7.538 C 10.459 7.514 10.482 7.49 10.507 7.468 C 10.507 7.467 10.509 7.466 10.509 7.466 C 10.743 7.255 11.041 7.143 11.384 7.141 L 11.384 7.141 C 11.385 7.141 11.386 7.141 11.387 7.141 C 11.389 7.141 11.39 7.141 11.391 7.141 C 11.731 7.141 12.111 7.249 12.514 7.477 L 27.122 15.777 L 27.121 15.777 L 27.029 15.87 Z " fill="url(#_lgradient_35)"/></g></g></g><path d=" M 42.388 11.722 C 42.832 12.172 43.375 12.396 44.018 12.396 C 44.661 12.396 45.205 12.172 45.648 11.722 C 46.092 11.273 46.315 10.698 46.315 10 C 46.315 9.302 46.092 8.727 45.648 8.278 C 45.205 7.828 44.661 7.603 44.018 7.603 C 43.375 7.603 42.832 7.828 42.388 8.278 C 41.945 8.727 41.722 9.302 41.722 10 C 41.722 10.698 41.945 11.273 42.388 11.722 Z  M 46.218 12.225 C 45.629 12.831 44.895 13.134 44.018 13.134 C 43.141 13.134 42.408 12.831 41.819 12.225 C 41.229 11.619 40.935 10.877 40.935 10 C 40.935 9.123 41.229 8.381 41.819 7.775 C 42.408 7.169 43.141 6.866 44.018 6.866 C 44.89 6.866 45.622 7.17 46.215 7.779 C 46.806 8.388 47.102 9.129 47.102 10 C 47.102 10.877 46.807 11.619 46.218 12.225 Z " fill="rgb(255,255,255)"/><path d=" M 42.388 11.722 L 42.317 11.793 C 42.778 12.26 43.352 12.498 44.018 12.496 C 44.684 12.498 45.259 12.26 45.719 11.793 C 46.182 11.325 46.416 10.719 46.415 10 C 46.416 9.281 46.182 8.675 45.719 8.207 L 45.719 8.207 C 45.259 7.74 44.684 7.502 44.018 7.503 C 43.352 7.502 42.778 7.74 42.317 8.207 L 42.317 8.207 C 41.855 8.675 41.621 9.281 41.622 10 C 41.621 10.719 41.855 11.325 42.317 11.793 L 42.388 11.722 L 42.459 11.652 C 42.035 11.22 41.823 10.677 41.822 10 C 41.823 9.323 42.035 8.78 42.459 8.348 L 42.459 8.348 C 42.887 7.916 43.399 7.705 44.018 7.704 C 44.638 7.705 45.15 7.916 45.577 8.348 L 45.577 8.348 C 46.002 8.78 46.214 9.323 46.215 10 C 46.214 10.677 46.002 11.22 45.577 11.652 C 45.15 12.084 44.638 12.295 44.018 12.297 C 43.399 12.295 42.887 12.084 42.459 11.652 L 42.388 11.722 Z  M 46.218 12.225 L 46.146 12.155 C 45.573 12.743 44.872 13.033 44.018 13.034 C 43.164 13.033 42.463 12.743 41.891 12.155 L 41.891 12.155 C 41.318 11.566 41.036 10.855 41.035 10 C 41.036 9.145 41.318 8.434 41.891 7.845 L 41.891 7.845 C 42.463 7.257 43.164 6.967 44.018 6.966 C 44.867 6.967 45.566 7.259 46.143 7.849 C 46.717 8.441 47.001 9.151 47.002 10 C 47.001 10.855 46.718 11.566 46.147 12.155 L 46.218 12.225 L 46.29 12.294 C 46.897 11.672 47.203 10.899 47.202 10 C 47.203 9.106 46.895 8.335 46.286 7.71 C 45.677 7.082 44.913 6.765 44.018 6.766 C 43.118 6.764 42.353 7.081 41.747 7.706 L 41.747 7.706 C 41.14 8.329 40.834 9.101 40.835 10 C 40.834 10.899 41.14 11.672 41.747 12.295 L 41.747 12.294 C 42.353 12.92 43.118 13.235 44.018 13.234 C 44.918 13.235 45.684 12.92 46.29 12.294 L 46.218 12.225" fill="rgb(255,255,255)"/><path d=" M 48.184 13 L 48.184 7 L 49.123 7 L 52.039 11.668 L 52.072 11.668 L 52.039 10.511 L 52.039 7 L 52.81 7 L 52.81 13 L 52.006 13 L 48.955 8.106 L 48.922 8.106 L 48.955 9.263 L 48.955 13 L 48.184 13 Z " fill="rgb(255,255,255)"/><path d=" M 48.184 13 L 48.284 13 L 48.284 7.1 L 49.067 7.1 L 51.983 11.768 L 52.072 11.768 L 52.175 11.768 L 52.139 10.51 L 52.139 7.1 L 52.71 7.1 L 52.71 12.9 L 52.061 12.9 L 49.01 8.006 L 48.922 8.006 L 48.818 8.006 L 48.855 9.264 L 48.855 12.9 L 48.184 12.9 L 48.184 13 L 48.284 13 L 48.184 13 L 48.184 13.1 L 48.955 13.1 L 49.055 13.1 L 49.055 9.261 L 49.022 8.103 L 48.922 8.106 L 48.922 8.206 L 48.955 8.206 L 48.955 8.106 L 48.87 8.159 L 51.95 13.1 L 52.81 13.1 L 52.91 13.1 L 52.91 6.9 L 52.039 6.9 L 51.939 6.9 L 51.939 10.512 L 51.972 11.67 L 52.072 11.668 L 52.072 11.568 L 52.039 11.568 L 52.039 11.668 L 52.123 11.614 L 49.178 6.9 L 48.184 6.9 L 48.084 6.9 L 48.084 13.1 L 48.184 13.1 L 48.184 13" fill="rgb(255,255,255)"/><path d=" M 56.228 13 L 55.457 13 L 55.457 7.737 L 53.781 7.737 L 53.781 7 L 57.904 7 L 57.904 7.737 L 56.228 7.737 L 56.228 13 Z " fill="rgb(255,255,255)"/><path d=" M 56.228 13 L 56.228 12.9 L 55.557 12.9 L 55.557 7.637 L 53.881 7.637 L 53.881 7.1 L 57.804 7.1 L 57.804 7.637 L 56.128 7.637 L 56.128 13 L 56.228 13 L 56.228 12.9 L 56.228 13 L 56.328 13 L 56.328 7.837 L 58.004 7.837 L 58.004 7 L 58.004 6.9 L 53.681 6.9 L 53.681 7.737 L 53.681 7.837 L 55.357 7.837 L 55.357 13.1 L 56.228 13.1 L 56.328 13.1 L 56.328 13 L 56.228 13 Z " fill="rgb(255,255,255)"/><path d=" M 59.647 12.263 L 60.711 12.263 C 61.404 12.263 61.953 12.065 62.358 11.668 C 62.763 11.271 62.965 10.715 62.965 10 C 62.965 9.291 62.763 8.736 62.358 8.336 C 61.953 7.938 61.404 7.737 60.711 7.737 L 59.647 7.737 L 59.647 12.263 Z  M 58.877 13 L 58.877 7 L 60.711 7 C 61.633 7 62.371 7.278 62.924 7.834 C 63.477 8.389 63.753 9.111 63.753 10 C 63.753 10.888 63.477 11.61 62.924 12.166 C 62.371 12.722 61.633 13 60.711 13 L 58.877 13 Z " fill="rgb(255,255,255)"/><path d=" M 59.647 12.263 L 59.647 12.363 L 60.711 12.363 C 61.422 12.364 62.002 12.157 62.428 11.739 C 62.856 11.321 63.066 10.733 63.065 10 C 63.066 9.273 62.856 8.686 62.428 8.265 L 62.428 8.265 C 62.002 7.845 61.422 7.636 60.711 7.637 L 59.647 7.637 L 59.547 7.637 L 59.547 12.363 L 59.647 12.363 L 59.647 12.263 L 59.747 12.263 L 59.747 7.837 L 60.711 7.837 C 61.385 7.838 61.903 8.03 62.288 8.408 L 62.288 8.407 C 62.671 8.786 62.864 9.309 62.865 10 C 62.865 10.697 62.67 11.221 62.288 11.596 C 61.903 11.972 61.385 12.162 60.711 12.163 L 59.647 12.163 L 59.647 12.263 L 59.747 12.263 L 59.647 12.263 Z  M 58.877 13 L 58.977 13 L 58.977 7.1 L 60.711 7.1 C 61.614 7.101 62.319 7.369 62.854 7.905 C 63.386 8.441 63.652 9.132 63.653 10 C 63.652 10.868 63.386 11.559 62.854 12.095 C 62.319 12.631 61.614 12.899 60.711 12.9 L 58.877 12.9 L 58.877 13 L 58.977 13 L 58.877 13 L 58.877 13.1 L 60.711 13.1 C 61.653 13.101 62.422 12.814 62.995 12.237 C 63.568 11.662 63.854 10.908 63.854 10 C 63.854 9.091 63.568 8.338 62.995 7.764 C 62.422 7.186 61.653 6.899 60.711 6.9 L 58.777 6.9 L 58.777 13.1 L 58.877 13.1 L 58.877 13 Z " fill="rgb(255,255,255)"/><path d=" M 68.337 7.737 L 65.604 7.737 L 65.604 9.639 L 68.068 9.639 L 68.068 10.36 L 65.604 10.36 L 65.604 12.263 L 68.337 12.263 L 68.337 13 L 64.834 13 L 64.834 7 L 68.337 7 L 68.337 7.737 Z " fill="rgb(255,255,255)"/><path d=" M 68.337 7.737 L 68.337 7.637 L 65.504 7.637 L 65.504 9.739 L 67.968 9.739 L 67.968 10.26 L 65.504 10.26 L 65.504 12.363 L 68.237 12.363 L 68.237 12.9 L 64.934 12.9 L 64.934 7.1 L 68.237 7.1 L 68.237 7.737 L 68.337 7.737 L 68.337 7.637 L 68.337 7.737 L 68.437 7.737 L 68.437 7 L 68.437 6.9 L 64.734 6.9 L 64.734 13.1 L 68.437 13.1 L 68.437 12.263 L 68.437 12.163 L 65.704 12.163 L 65.704 10.46 L 68.168 10.46 L 68.168 9.639 L 68.168 9.539 L 65.704 9.539 L 65.704 7.837 L 68.437 7.837 L 68.437 7.737 L 68.337 7.737" fill="rgb(255,255,255)"/><path d=" M 73.986 7 L 73.986 7.033 L 71.756 9.606 L 74.136 12.967 L 74.136 13 L 73.19 13 L 71.236 10.201 L 70.315 11.266 L 70.315 13 L 69.544 13 L 69.544 7 L 70.315 7 L 70.315 10.092 L 70.348 10.092 L 72.988 7 L 73.986 7 Z " fill="rgb(255,255,255)"/><path d=" M 73.986 7 L 73.885 7 L 73.885 7.033 L 73.986 7.033 L 73.91 6.968 L 71.629 9.6 L 74.036 12.998 L 74.036 13 L 74.136 13 L 74.136 12.9 L 73.242 12.9 L 71.245 10.039 L 70.215 11.228 L 70.215 12.9 L 69.644 12.9 L 69.644 7.1 L 70.215 7.1 L 70.215 10.192 L 70.348 10.192 L 70.395 10.192 L 73.034 7.1 L 73.986 7.1 L 73.986 7 L 73.885 7 L 73.986 7 L 73.986 6.9 L 72.988 6.9 L 72.942 6.9 L 70.273 10.027 L 70.348 10.092 L 70.348 9.992 L 70.314 9.992 L 70.314 10.092 L 70.414 10.092 L 70.414 6.9 L 69.544 6.9 L 69.444 6.9 L 69.444 13.1 L 70.314 13.1 L 70.414 13.1 L 70.414 11.303 L 71.228 10.364 L 73.137 13.1 L 74.136 13.1 L 74.236 13.1 L 74.236 12.967 L 74.236 12.935 L 71.883 9.613 L 74.086 7.07 L 74.086 7 L 74.086 6.9 L 73.986 6.9 L 73.986 7" fill="rgb(255,255,255)"/><path d=" M 76.935 13 L 76.935 7 L 77.705 7 L 77.705 9.572 L 80.705 9.572 L 80.705 7 L 81.477 7 L 81.477 13 L 80.705 13 L 80.705 10.293 L 77.705 10.293 L 77.705 13 L 76.935 13 Z " fill="rgb(255,255,255)"/><path d=" M 76.935 13 L 77.035 13 L 77.035 7.1 L 77.605 7.1 L 77.605 9.672 L 80.805 9.672 L 80.805 7.1 L 81.377 7.1 L 81.377 12.9 L 80.805 12.9 L 80.805 10.193 L 77.605 10.193 L 77.605 12.9 L 76.935 12.9 L 76.935 13 L 77.035 13 L 76.935 13 L 76.935 13.1 L 77.705 13.1 L 77.805 13.1 L 77.805 10.393 L 80.605 10.393 L 80.605 13.1 L 81.477 13.1 L 81.577 13.1 L 81.577 6.9 L 80.705 6.9 L 80.605 6.9 L 80.605 9.472 L 77.805 9.472 L 77.805 6.9 L 76.935 6.9 L 76.835 6.9 L 76.835 13.1 L 76.935 13.1 L 76.935 13 Z " fill="rgb(255,255,255)"/><path d=" M 86.355 7.737 L 83.622 7.737 L 83.622 9.639 L 86.086 9.639 L 86.086 10.36 L 83.622 10.36 L 83.622 12.263 L 86.355 12.263 L 86.355 13 L 82.852 13 L 82.852 7 L 86.355 7 L 86.355 7.737 Z " fill="rgb(255,255,255)"/><path d=" M 86.355 7.737 L 86.355 7.637 L 83.522 7.637 L 83.522 9.739 L 85.986 9.739 L 85.986 10.26 L 83.522 10.26 L 83.522 12.363 L 86.255 12.363 L 86.255 12.9 L 82.952 12.9 L 82.952 7.1 L 86.255 7.1 L 86.255 7.737 L 86.355 7.737 L 86.355 7.637 L 86.355 7.737 L 86.455 7.737 L 86.455 7 L 86.455 6.9 L 82.752 6.9 L 82.752 13.1 L 86.455 13.1 L 86.455 12.263 L 86.455 12.163 L 83.722 12.163 L 83.722 10.46 L 86.186 10.46 L 86.186 9.639 L 86.186 9.539 L 83.722 9.539 L 83.722 7.837 L 86.455 7.837 L 86.455 7.737 L 86.355 7.737" fill="rgb(255,255,255)"/><path d=" M 89.606 13 L 88.835 13 L 88.835 7.737 L 87.159 7.737 L 87.159 7 L 91.282 7 L 91.282 7.737 L 89.606 7.737 L 89.606 13 Z " fill="rgb(255,255,255)"/><path d=" M 89.606 13 L 89.606 12.9 L 88.935 12.9 L 88.935 7.637 L 87.259 7.637 L 87.259 7.1 L 91.182 7.1 L 91.182 7.637 L 89.506 7.637 L 89.506 13 L 89.606 13 L 89.606 12.9 L 89.606 13 L 89.706 13 L 89.706 7.837 L 91.382 7.837 L 91.382 7 L 91.382 6.9 L 87.059 6.9 L 87.059 7.737 L 87.059 7.837 L 88.735 7.837 L 88.735 13.1 L 89.606 13.1 L 89.706 13.1 L 89.706 13 L 89.606 13 Z " fill="rgb(255,255,255)"/><path d=" M 95.258 11.722 C 95.702 12.172 96.245 12.396 96.888 12.396 C 97.53 12.396 98.074 12.172 98.518 11.722 C 98.962 11.273 99.185 10.698 99.185 10 C 99.185 9.302 98.962 8.727 98.518 8.278 C 98.074 7.828 97.53 7.603 96.888 7.603 C 96.245 7.603 95.702 7.828 95.258 8.278 C 94.814 8.727 94.592 9.302 94.592 10 C 94.592 10.698 94.814 11.273 95.258 11.722 Z  M 99.088 12.225 C 98.498 12.831 97.765 13.134 96.888 13.134 C 96.011 13.134 95.277 12.831 94.688 12.225 C 94.099 11.619 93.805 10.877 93.805 10 C 93.805 9.123 94.099 8.381 94.688 7.775 C 95.277 7.169 96.011 6.866 96.888 6.866 C 97.76 6.866 98.491 7.17 99.084 7.779 C 99.676 8.388 99.972 9.129 99.972 10 C 99.972 10.877 99.677 11.619 99.088 12.225" fill="rgb(255,255,255)"/><path d=" M 95.258 11.722 L 95.187 11.793 C 95.647 12.26 96.222 12.498 96.888 12.496 C 97.554 12.498 98.129 12.26 98.589 11.793 C 99.052 11.325 99.286 10.719 99.285 10 C 99.286 9.281 99.052 8.675 98.589 8.207 L 98.589 8.207 C 98.129 7.74 97.554 7.502 96.888 7.503 C 96.222 7.502 95.647 7.74 95.187 8.207 L 95.187 8.207 C 94.724 8.675 94.491 9.281 94.492 10 C 94.491 10.719 94.724 11.325 95.187 11.793 L 95.258 11.722 L 95.329 11.652 C 94.905 11.22 94.693 10.677 94.692 10 C 94.693 9.323 94.905 8.78 95.329 8.348 L 95.329 8.348 C 95.757 7.916 96.268 7.705 96.888 7.704 C 97.507 7.705 98.019 7.916 98.446 8.348 L 98.45 8.351 L 98.446 8.348 C 98.872 8.78 99.084 9.323 99.085 10 C 99.084 10.677 98.872 11.22 98.446 11.652 C 98.019 12.084 97.507 12.295 96.888 12.297 C 96.268 12.295 95.757 12.084 95.329 11.652 L 95.258 11.722 Z  M 99.088 12.225 L 99.016 12.155 C 98.443 12.743 97.742 13.033 96.888 13.034 C 96.034 13.033 95.332 12.743 94.76 12.155 L 94.76 12.155 C 94.188 11.566 93.906 10.855 93.905 10 C 93.906 9.145 94.188 8.434 94.76 7.845 L 94.76 7.845 C 95.332 7.257 96.034 6.967 96.888 6.966 C 97.737 6.967 98.436 7.259 99.012 7.849 C 99.587 8.441 99.871 9.151 99.872 10 C 99.871 10.855 99.587 11.566 99.016 12.155 L 99.088 12.225 L 99.16 12.294 C 99.766 11.672 100.073 10.899 100.072 10 C 100.073 9.106 99.765 8.335 99.156 7.71 C 98.546 7.082 97.783 6.765 96.888 6.766 C 95.988 6.764 95.222 7.081 94.617 7.706 L 94.617 7.706 C 94.009 8.329 93.704 9.101 93.705 10 C 93.704 10.899 94.009 11.672 94.617 12.295 L 94.617 12.294 C 95.222 12.92 95.988 13.235 96.888 13.234 C 97.788 13.235 98.553 12.92 99.16 12.294 L 99.088 12.225" fill="rgb(255,255,255)"/><path d=" M 101.823 9.832 L 103.114 9.832 C 103.438 9.832 103.698 9.723 103.894 9.506 C 104.089 9.287 104.187 9.048 104.187 8.785 C 104.187 8.523 104.089 8.282 103.894 8.064 C 103.698 7.846 103.438 7.737 103.114 7.737 L 101.823 7.737 L 101.823 9.832 Z  M 101.823 13 L 101.053 13 L 101.053 7 L 103.098 7 C 103.605 7 104.046 7.169 104.417 7.507 C 104.789 7.844 104.975 8.271 104.975 8.785 C 104.975 9.299 104.789 9.725 104.417 10.062 C 104.046 10.401 103.605 10.57 103.098 10.57 L 101.823 10.57 L 101.823 13 Z " fill="rgb(255,255,255)"/><path d=" M 101.823 9.832 L 101.823 9.932 L 103.114 9.932 C 103.46 9.933 103.755 9.812 103.968 9.573 L 103.968 9.573 C 104.177 9.34 104.287 9.073 104.287 8.785 C 104.287 8.497 104.177 8.23 103.968 7.998 L 103.968 7.998 C 103.755 7.757 103.46 7.636 103.114 7.637 L 101.823 7.637 L 101.723 7.637 L 101.723 9.932 L 101.823 9.932 L 101.823 9.832 L 101.923 9.832 L 101.923 7.837 L 103.114 7.837 C 103.417 7.839 103.642 7.935 103.819 8.131 L 103.819 8.131 C 104.001 8.335 104.086 8.548 104.087 8.785 C 104.086 9.023 104.001 9.235 103.819 9.439 L 103.819 9.439 C 103.642 9.635 103.417 9.731 103.114 9.732 L 101.823 9.732 L 101.823 9.832 L 101.923 9.832 L 101.823 9.832 Z  M 101.823 13 L 101.823 12.9 L 101.153 12.9 L 101.153 7.1 L 103.098 7.1 C 103.583 7.101 103.995 7.259 104.35 7.581 L 104.35 7.581 C 104.702 7.902 104.873 8.295 104.875 8.785 C 104.873 9.275 104.702 9.667 104.35 9.989 L 104.35 9.989 C 103.995 10.311 103.583 10.469 103.098 10.47 L 101.823 10.47 L 101.723 10.47 L 101.723 13 L 101.823 13 L 101.823 12.9 L 101.823 13 L 101.923 13 L 101.923 10.67 L 103.098 10.67 C 103.628 10.671 104.097 10.491 104.484 10.136 L 104.484 10.136 C 104.876 9.782 105.076 9.323 105.075 8.785 C 105.076 8.247 104.876 7.787 104.484 7.433 L 104.484 7.433 C 104.097 7.079 103.628 6.899 103.098 6.9 L 100.953 6.9 L 100.953 13.1 L 101.823 13.1 L 101.923 13.1 L 101.923 13 L 101.823 13 Z " fill="rgb(255,255,255)"/></g></svg>
