<?xml version="1.0" encoding="UTF-8"?>
<svg width="14px" height="14px" viewBox="0 0 14 14" version="1.1" xmlns="http://www.w3.org/2000/svg" xmlns:xlink="http://www.w3.org/1999/xlink">
    <title>6C7281B2-CB54-4304-97EE-7B770E3C8237</title>
    <g id="Desktop" stroke="none" stroke-width="1" fill="none" fill-rule="evenodd">
        <g id="D---Leeftijd-aantonen---Waarom-deze-gegevens" transform="translate(-238.000000, -183.000000)" fill="#FFFFFF">
            <g id="Atom/Alert/Important/Mobile" transform="translate(230.000000, 172.000000)">
                <g id="Icon/32/Info" transform="translate(8.000000, 11.000000)">
                    <path d="M7,0 C3.15,0 0,3.15 0,7 C0,10.85 3.15,14 7,14 C10.85,14 14,10.85 14,7 C14,3.15 10.85,0 7,0 Z M7,12 C4.25,12 2,9.75 2,7 C2,4.25 4.25,2 7,2 C9.75,2 12,4.25 12,7 C12,9.75 9.75,12 7,12 Z M6,5 L8,5 L8,4 L6,4 L6,5 Z M6,10 L8,10 L8,6 L6,6 L6,10 Z" id="Shape"></path>
                </g>
            </g>
        </g>
    </g>
</svg>
