<?xml version="1.0" encoding="utf-8"?>
<!-- Generator: Adobe Illustrator 27.2.0, SVG Export Plug-In . SVG Version: 6.00 Build 0)  -->
<svg version="1.1" id="Laag_1" xmlns="http://www.w3.org/2000/svg" xmlns:xlink="http://www.w3.org/1999/xlink" x="0px" y="0px"
	 viewBox="0 0 1190.6 841.9" style="enable-background:new 0 0 1190.6 841.9;" xml:space="preserve">
<style type="text/css">
	.st0{fill:#3EA6DE;}
	.st1{fill:#E02146;}
	.st2{fill:#97C6DD;}
	.st3{fill:#6A2E4A;}
	.st4{fill:#BA3353;}
</style>
<g id="Laag_2">
</g>
<g id="Laag_1_00000158030686122849887100000009970174369865466260_">
	<g>
		<polygon class="st0" points="552.8,309.7 637.9,538.2 722.9,538.2 637.9,309.7 		"/>
		<path class="st1" d="M802.8,245.3c0-24.5,19.4-45.3,47.6-45.3s47.6,20.8,47.6,45.3S878.7,291,850.5,291S802.8,269.8,802.8,245.3z"
			/>
		<g>
			<polygon class="st2" points="893,309.7 893,309.7 893,538.2 893,538.2 978,309.7 			"/>
			<polygon class="st1" points="893,309.7 808,309.7 808,538.2 808,538.2 893,309.7 			"/>
			<polygon class="st3" points="808,538.2 893,538.2 893,309.7 			"/>
		</g>
		<g>
			<polygon class="st2" points="552.8,309.7 552.8,309.7 552.8,538.2 552.8,538.2 637.9,309.7 			"/>
			<polygon class="st1" points="552.8,309.7 467.8,309.7 467.8,538.2 467.8,538.2 552.8,309.7 			"/>
			<polygon class="st3" points="467.8,538.2 552.8,538.2 552.8,309.7 			"/>
		</g>
		<path class="st1" d="M297.7,538.2c-7.6,20.5-18.5,25.9-36.5,25.9c-11.6,0-20.8-1.8-29.5-4.6l-1.4,61.1c11.9,3.2,27.2,4.6,40.6,4.6
			c59.2,0,87.2-20.5,105-68.5l6.9-18.5L297.7,538.2L297.7,538.2z"/>
		<polygon class="st1" points="552.8,309.7 637.9,538.2 722.9,538.2 637.9,309.7 		"/>
		<path class="st1" d="M462.7,245.3c0-24.5,19.4-45.3,47.6-45.3c28.2,0,47.6,20.8,47.6,45.3S538.5,291,510.3,291
			S462.7,269.8,462.7,245.3z"/>
	</g>
	<g>
		<polygon class="st3" points="722.9,309.7 680.4,424 722.9,538.2 722.9,538.2 808,309.7 		"/>
	</g>
	<g>
		<polygon class="st3" points="382.8,309.7 340.2,424 382.8,538.2 382.8,538.2 467.8,309.7 		"/>
	</g>
	<polygon class="st1" points="212.7,309.7 297.7,538.2 382.8,538.2 297.7,309.7 	"/>
	<g>
		<polygon class="st2" points="297.7,309.7 297.7,309.7 297.7,309.7 		"/>
		<path class="st1" d="M212.7,309.7L212.7,309.7L212.7,309.7z"/>
		<polygon class="st3" points="297.7,309.7 212.7,309.7 212.7,309.7 255.2,424 297.7,309.7 		"/>
		<polygon class="st4" points="637.9,309.7 552.8,309.7 552.8,309.7 595.4,424 637.9,309.7 		"/>
		<polygon class="st4" points="637.9,538.2 722.9,538.2 722.9,538.2 680.4,424 637.9,538.2 		"/>
		<polygon class="st4" points="297.7,538.2 382.8,538.2 382.8,538.2 340.2,424 297.7,538.2 		"/>
	</g>
</g>
</svg>
