<svg width="1191" height="842" viewBox="0 0 1191 842" fill="none" xmlns="http://www.w3.org/2000/svg">
<rect width="1190.55" height="841.89" fill="white"/>
<path d="M552.843 309.725L637.882 538.174H722.921L637.882 309.725H552.843Z" fill="#3EA6DE"/>
<path d="M802.841 245.254C802.841 220.742 822.267 199.928 850.48 199.928C878.693 199.928 898.119 220.742 898.119 245.254C898.119 269.766 878.693 291.043 850.48 291.043C822.267 291.043 802.841 269.766 802.841 245.254Z" fill="#E02146"/>
<path d="M892.999 309.725V309.727V538.174H893.001L978.04 309.725H892.999Z" fill="#97C6DD"/>
<path d="M892.999 309.725H807.96V538.174L892.999 309.727V309.725Z" fill="#E02146"/>
<path d="M807.96 538.174H892.999V309.727L807.96 538.174Z" fill="#6A2E4A"/>
<path d="M552.843 309.725L552.841 309.727V538.174H552.843L637.884 309.725H552.843Z" fill="#97C6DD"/>
<path d="M552.841 309.725H467.802V538.174H467.804L552.841 309.727V309.725Z" fill="#E02146"/>
<path d="M467.804 538.174H552.841V309.727L467.804 538.174Z" fill="#6A2E4A"/>
<path d="M297.724 538.174C290.089 558.69 279.253 564.074 261.214 564.074C249.652 564.074 240.444 562.224 231.724 559.449L230.283 620.5C242.23 623.738 257.461 625.125 270.873 625.125C330.074 625.125 358.041 604.604 375.894 556.637L382.765 538.174H297.724Z" fill="#E02146"/>
<path d="M552.843 309.725L637.882 538.174H722.921L637.882 309.725H552.843Z" fill="#E02146"/>
<path d="M462.686 245.254C462.686 220.742 482.11 199.928 510.323 199.928C538.536 199.928 557.962 220.742 557.962 245.254C557.962 269.766 538.536 291.043 510.323 291.043C482.11 291.043 462.686 269.766 462.686 245.254Z" fill="#E02146"/>
<path d="M722.921 309.725L680.401 423.963L722.921 538.174H722.923L807.962 309.725H722.921Z" fill="#6A2E4A"/>
<path d="M382.763 309.725L340.245 423.963L382.765 538.174L467.804 309.725H382.763Z" fill="#6A2E4A"/>
<path d="M212.686 309.725L297.725 538.174H382.766L297.727 309.725H212.686Z" fill="#E02146"/>
<path d="M297.727 309.725H212.686V309.727L255.205 423.967L297.727 309.727V309.725Z" fill="#6A2E4A"/>
<path d="M637.883 309.725H552.844V309.727L595.363 423.967L637.883 309.727V309.725Z" fill="#BA3353"/>
<path d="M637.883 538.178H722.924V538.176L680.402 423.967L637.883 538.176V538.178Z" fill="#BA3353"/>
<path d="M297.725 538.178H382.766V538.176L340.246 423.967L297.725 538.176V538.178Z" fill="#BA3353"/>
</svg>
