<?xml version="1.0" encoding="UTF-8"?><svg id="Laag_1" xmlns="http://www.w3.org/2000/svg" viewBox="0 0 859.74 504.7"><defs><style>.cls-1{fill:#6a2e4a;}.cls-2{fill:#fff;}.cls-3{fill:#97c6dd;}.cls-4{fill:#ba3353;}.cls-5{fill:#e02146;}.cls-6{fill:#3ea6de;}</style></defs><g id="Laag_1-2"><rect class="cls-2" width="859.74" height="504.7"/><g><polygon class="cls-6" points="390.84 147.84 475.88 376.28 560.92 376.28 475.88 147.84 390.84 147.84"/><path class="cls-5" d="m640.84,83.36c0-24.51,19.43-45.33,47.64-45.33s47.64,20.81,47.64,45.33-19.43,45.79-47.64,45.79-47.64-21.28-47.64-45.79Z"/><g><polygon class="cls-3" points="731 147.84 731 147.84 731 376.28 731 376.28 816.04 147.84 731 147.84"/><polygon class="cls-5" points="731 147.84 645.96 147.84 645.96 376.28 645.96 376.28 731 147.84 731 147.84"/><polygon class="cls-1" points="645.96 376.28 731 376.28 731 147.84 645.96 376.28"/></g><g><polygon class="cls-3" points="390.84 147.84 390.84 147.84 390.84 376.28 390.84 376.28 475.89 147.84 390.84 147.84"/><polygon class="cls-5" points="390.84 147.84 305.8 147.84 305.8 376.28 305.8 376.28 390.84 147.84 390.84 147.84"/><polygon class="cls-1" points="305.8 376.28 390.84 376.28 390.84 147.84 305.8 376.28"/></g><path class="cls-5" d="m135.73,376.28c-7.64,20.52-18.47,25.9-36.51,25.9-11.56,0-20.77-1.85-29.49-4.62l-1.44,61.05c11.95,3.24,27.18,4.62,40.59,4.62,59.2,0,87.17-20.52,105.02-68.49l6.87-18.46h-85.04Z"/><polygon class="cls-5" points="390.84 147.84 475.88 376.28 560.92 376.28 475.88 147.84 390.84 147.84"/><path class="cls-5" d="m300.69,83.36c0-24.51,19.42-45.33,47.64-45.33s47.64,20.81,47.64,45.33-19.43,45.79-47.64,45.79-47.64-21.28-47.64-45.79Z"/></g><polygon class="cls-1" points="560.92 147.84 518.4 262.07 560.92 376.28 560.92 376.28 645.96 147.84 560.92 147.84"/><polygon class="cls-1" points="220.76 147.84 178.25 262.07 220.77 376.28 220.77 376.28 305.8 147.84 220.76 147.84"/><polygon class="cls-5" points="50.69 147.84 135.73 376.28 220.77 376.28 135.73 147.84 50.69 147.84"/><g><polygon class="cls-1" points="135.73 147.84 50.69 147.84 50.69 147.84 93.21 262.08 135.73 147.84 135.73 147.84"/><polygon class="cls-4" points="475.88 147.84 390.84 147.84 390.84 147.84 433.36 262.08 475.88 147.84 475.88 147.84"/><polygon class="cls-4" points="475.88 376.29 560.92 376.29 560.92 376.29 518.4 262.08 475.88 376.29 475.88 376.29"/><polygon class="cls-4" points="135.73 376.29 220.77 376.29 220.77 376.29 178.25 262.08 135.73 376.29 135.73 376.29"/></g></g></svg>