<?xml version="1.0" encoding="UTF-8"?><svg id="Laag_1" xmlns="http://www.w3.org/2000/svg" viewBox="0 0 765.36 425.2"><defs><style>.cls-1{fill:#6a2e4a;}.cls-2{fill:#97c6dd;}.cls-3{fill:#ba3353;}.cls-4{fill:#e02146;}.cls-5{fill:#3ea6de;}</style></defs><g id="Laag_1-2"><g><polygon class="cls-5" points="340.16 109.8 425.2 338.25 510.24 338.25 425.2 109.8 340.16 109.8"/><path class="cls-4" d="m590.16,45.33c0-24.51,19.43-45.33,47.64-45.33s47.64,20.81,47.64,45.33-19.43,45.79-47.64,45.79-47.64-21.28-47.64-45.79Z"/><g><polygon class="cls-2" points="680.31 109.8 680.31 109.8 680.31 338.25 680.32 338.25 765.36 109.8 680.31 109.8"/><polygon class="cls-4" points="680.31 109.8 595.27 109.8 595.27 338.25 595.27 338.25 680.31 109.8 680.31 109.8"/><polygon class="cls-1" points="595.27 338.25 680.31 338.25 680.31 109.8 595.27 338.25"/></g><g><polygon class="cls-2" points="340.16 109.8 340.16 109.8 340.16 338.25 340.16 338.25 425.2 109.8 340.16 109.8"/><polygon class="cls-4" points="340.16 109.8 255.12 109.8 255.12 338.25 255.12 338.25 340.16 109.8 340.16 109.8"/><polygon class="cls-1" points="255.12 338.25 340.16 338.25 340.16 109.8 255.12 338.25"/></g><path class="cls-4" d="m85.04,338.25c-7.64,20.52-18.47,25.9-36.51,25.9-11.56,0-20.77-1.85-29.49-4.62l-1.44,61.05c11.95,3.24,27.18,4.62,40.59,4.62,59.2,0,87.17-20.52,105.02-68.49l6.87-18.46h-85.04Z"/><polygon class="cls-4" points="340.16 109.8 425.2 338.25 510.24 338.25 425.2 109.8 340.16 109.8"/><path class="cls-4" d="m250,45.33c0-24.51,19.42-45.33,47.64-45.33s47.64,20.81,47.64,45.33-19.43,45.79-47.64,45.79-47.64-21.28-47.64-45.79Z"/></g><polygon class="cls-1" points="510.24 109.8 467.72 224.04 510.24 338.25 510.24 338.25 595.28 109.8 510.24 109.8"/><polygon class="cls-1" points="170.08 109.8 127.56 224.04 170.08 338.25 170.08 338.25 255.12 109.8 170.08 109.8"/><polygon class="cls-4" points="0 109.8 85.04 338.25 170.08 338.25 85.04 109.8 0 109.8"/><g><polygon class="cls-1" points="85.04 109.8 0 109.8 0 109.8 42.52 224.04 85.04 109.8 85.04 109.8"/><polygon class="cls-3" points="425.2 109.8 340.16 109.8 340.16 109.8 382.68 224.04 425.2 109.8 425.2 109.8"/><polygon class="cls-3" points="425.2 338.25 510.24 338.25 510.24 338.25 467.72 224.04 425.2 338.25 425.2 338.25"/><polygon class="cls-3" points="85.04 338.25 170.08 338.25 170.08 338.25 127.56 224.04 85.04 338.25 85.04 338.25"/></g></g></svg>