<svg width="130" height="72" viewBox="0 0 130 72" fill="none" xmlns="http://www.w3.org/2000/svg">
<path d="M57.4287 18.5193L71.7858 57.0513H86.1429L71.7858 18.5193H57.4287Z" fill="#3EA6DE"/>
<path d="M99.6357 7.64505C99.6357 3.51066 102.915 0 107.679 0C112.442 0 115.721 3.51066 115.721 7.64505C115.721 11.7794 112.442 15.3682 107.679 15.3682C102.915 15.3682 99.6357 11.7794 99.6357 7.64505Z" fill="#E02146"/>
<path d="M114.857 18.5193V18.5196V57.0513H114.857L129.214 18.5193H114.857Z" fill="#97C6DD"/>
<path d="M114.857 18.5193H100.5V57.0513L114.857 18.5196V18.5193Z" fill="#E02146"/>
<path d="M100.5 57.0512H114.857V18.5195L100.5 57.0512Z" fill="#6A2E4A"/>
<path d="M57.4287 18.5193L57.4283 18.5196V57.0513H57.4287L71.7861 18.5193H57.4287Z" fill="#97C6DD"/>
<path d="M57.4284 18.5193H43.0713V57.0513H43.0716L57.4284 18.5196V18.5193Z" fill="#E02146"/>
<path d="M43.0715 57.0512H57.4283V18.5195L43.0715 57.0512Z" fill="#6A2E4A"/>
<path d="M14.3571 57.0513C13.0681 60.5117 11.2387 61.4198 8.19314 61.4198C6.24113 61.4198 4.68655 61.1078 3.21435 60.6397L2.97107 70.9371C4.98808 71.4832 7.55952 71.7172 9.82386 71.7172C19.8187 71.7172 24.5404 68.256 27.5545 60.1655L28.7145 57.0513H14.3571Z" fill="#E02146"/>
<path d="M57.4287 18.5193L71.7858 57.0513H86.1429L71.7858 18.5193H57.4287Z" fill="#E02146"/>
<path d="M42.2074 7.64505C42.2074 3.51066 45.4867 0 50.2499 0C55.0131 0 58.2928 3.51066 58.2928 7.64505C58.2928 11.7794 55.0131 15.3682 50.2499 15.3682C45.4867 15.3682 42.2074 11.7794 42.2074 7.64505Z" fill="#E02146"/>
<path d="M86.1786 19L79 38.2683L86.1786 57.5321H86.179L100.536 19H86.1786Z" fill="#6A2E4A"/>
<path d="M28.7142 18.5193L21.5359 37.7876L28.7145 57.0513L43.0716 18.5193H28.7142Z" fill="#6A2E4A"/>
<path d="M0 18.5193L14.3571 57.0513H28.7145L14.3574 18.5193H0Z" fill="#E02146"/>
<path d="M14.3574 18.5193H0V18.5196L7.17846 37.7882L14.3574 18.5196V18.5193Z" fill="#6A2E4A"/>
<path d="M71.7858 18.5193H57.4287L64.6072 37.7882L71.7858 18.5193Z" fill="#BA3353"/>
<path d="M71.7858 57.052H86.1432V57.0517L78.9642 37.7882L71.7858 57.0517V57.052Z" fill="#BA3353"/>
<path d="M14.3571 57.052H28.7145V57.0517L21.5359 37.7882L14.3571 57.0517V57.052Z" fill="#BA3353"/>
</svg>
