<svg height="14" viewBox="0 0 14 14" width="14" xmlns="http://www.w3.org/2000/svg"
     xmlns:xlink="http://www.w3.org/1999/xlink">
    <defs>
        <path id="a"
              d="m13.2907561 2.10924387c.3917046-.39170457.3985385-1.01994925.0010409-1.41744683l.016406.01640592c-.3911297-.39112969-1.0253284-.39107754-1.4174469.00104091l-4.8907561 4.89075613-4.89075613-4.89075613c-.39170457-.39170457-1.01994925-.39853849-1.41744683-.00104091l.01640592-.01640592c-.39112969.3911297-.39107754 1.02532838.00104091 1.41744683l4.89075613 4.89075613-4.89075613 4.8907561c-.39170457.3917046-.39853849 1.0199493-.00104091 1.4174469l-.01640592-.016406c.3911297.3911297 1.02532838.3910776 1.41744683-.0010409l4.89075613-4.8907561 4.8907561 4.8907561c.3917046.3917046 1.0199493.3985385 1.4174469.0010409l-.016406.016406c.3911297-.3911297.3910776-1.0253284-.0010409-1.4174469l-4.8907561-4.8907561z"/>
        <mask id="b" fill="#fff">
            <use fill="#fff" fill-rule="evenodd" xlink:href="#a"/>
        </mask>
    </defs>
    <g fill="none" fill-rule="evenodd">
        <use fill="#000" xlink:href="#a"/>
        <g fill="#b4b4b4" mask="url(#b)">
            <path d="m0 0h24v24h-24z" transform="translate(-5 -5)"/>
        </g>
    </g>
</svg>
