<?xml version="1.0" encoding="UTF-8"?>
<svg width="25px" height="27px" viewBox="0 0 25 27" version="1.1" xmlns="http://www.w3.org/2000/svg" xmlns:xlink="http://www.w3.org/1999/xlink">
    <!-- Generator: sketchtool 61.2 (101010) - https://sketch.com -->
    <title>9879A274-EBE0-486F-8459-692AC46517AE</title>
    <desc>Created with sketchtool.</desc>
    <defs>
        <polygon id="path-1" points="0 0.339340909 24.3895909 0.339340909 24.3895909 26.25 0 26.25"></polygon>
    </defs>
    <g id="IxD-Straatje" stroke="none" stroke-width="1" fill="none" fill-rule="evenodd">
        <g id="4-|-Stemmen---Open-Stad-Copy" transform="translate(-646.000000, -853.000000)">
            <g id="Group-7" transform="translate(646.000000, 853.000000)">
                <g id="Group-6" transform="translate(0.000000, 0.216825)">
                    <mask id="mask-2" fill="white">
                        <use xlink:href="#path-1"></use>
                    </mask>
                    <g id="Clip-5"></g>
                    <path d="M19.0116818,10.692675 C19.4851364,10.6105841 19.9590682,10.5289705 20.4325227,10.445925 C21.6643636,10.2297205 22.8747273,10.1552659 23.9519318,10.9718795 C23.9967955,11.0062432 24.0345,11.0506295 24.0736364,11.091675 C24.4688182,11.5083341 24.4864773,13.0308341 24.1652727,13.4966523 C23.4054545,14.598675 22.3592727,15.3222205 21.1928182,15.9240614 C20.5623409,16.2490841 19.9786364,16.6643114 19.3648636,17.0236977 C18.8537045,17.3224705 18.32775,17.5959477 17.8127727,17.8885159 C17.7034773,17.9510386 17.61375,18.0488795 17.3736818,18.2464705 C19.0512955,18.2856068 20.0473636,18.9766977 20.0745682,20.5454932 C19.9705227,20.7335386 19.8698182,20.9239705 19.7619545,21.1101068 C19.6283182,21.3415841 19.5347727,21.6222205 19.3429091,21.7887886 C18.9014318,22.1729932 18.3912273,22.4784477 17.9445,22.8578795 C17.304,23.4010159 16.7432045,23.9871068 16.2349091,24.6958568 C15.7242273,25.4074705 15.1729773,26.5204705 13.7850682,26.1901977 C13.7736136,26.1701523 13.6910455,26.0298341 13.5994091,25.8751977 C13.5555,25.8709023 13.4796136,25.8398795 13.4528864,25.8637432 C13.2075682,26.0832886 13.0534091,25.9510841 12.9980455,25.7138795 C12.8033182,24.8791295 12.6343636,24.0386523 12.4549091,23.1972205 C11.8048636,23.649675 11.1304773,23.3217886 10.4742273,23.1428114 C9.6075,22.9065614 9.54163636,22.7796068 9.51347727,21.8789932 C9.51156818,21.8217205 9.53256818,21.7482205 9.50440909,21.7100386 C8.64293182,20.5340386 9.62468182,19.759425 10.2098182,19.0239477 C10.9238182,18.1276295 11.8506818,17.4012205 12.684,16.5998795 C12.7603636,16.5268568 12.8267045,16.4433341 12.8973409,16.3650614 C12.8739545,16.3168568 12.8500909,16.2686523 12.8262273,16.2204477 C12.0745227,16.4872432 11.3156591,16.7359023 10.5735,17.0275159 C10.1162727,17.2074477 9.68386364,17.4513341 9.24238636,17.6708795 C8.75652273,17.9123795 8.26540909,18.1448114 7.791,18.4073114 C6.8145,18.9475841 5.87093182,19.5532432 4.86675,20.0348114 C4.37372727,20.2710614 3.74420455,20.4548114 3.23638636,20.3555386 C2.83881818,20.2777432 2.42597727,19.7832886 2.21406818,19.3733114 C1.94202273,18.8468795 1.85802273,18.2216523 1.70863636,17.6350841 C1.67284091,17.4947659 1.64038636,17.3033795 1.70577273,17.1959932 C2.20404545,16.378425 2.72809091,15.5742205 3.53706818,15.0172432 C4.49209091,14.3600386 5.44615909,13.7018795 6.4155,13.0666295 C7.35811364,12.4495159 8.32125,11.8629477 9.27197727,11.2577659 C9.45954545,11.1384477 9.63231818,10.9962205 9.79936364,10.8735614 C9.58459091,10.2354477 9.27675,10.6621295 9.00518182,10.734675 C8.30502273,10.9222432 7.58434091,11.0530159 6.90756818,11.3035841 C5.59172727,11.7908795 4.31072727,12.372675 2.99488636,12.8604477 C2.09045455,13.1959705 1.24377273,12.8656977 0.438613636,12.4471295 C0.352227273,12.4022659 0.271090909,12.2762659 0.254863636,12.1774705 C0.168477273,11.6410159 0.134590909,11.0945386 0.0219545455,10.5642886 C-0.115022727,9.91901591 0.416659091,9.63981136 0.729272727,9.30285682 C1.60411364,8.36119773 2.55722727,7.49112955 3.48934091,6.602925 C3.91029545,6.20153864 4.35415909,5.82401591 4.78752273,5.43551591 C4.77034091,5.38683409 4.75315909,5.33815227 4.73597727,5.28947045 C4.34318182,5.28947045 3.94895455,5.30999318 3.55806818,5.28278864 C3.2865,5.26369773 3.01970455,5.17969773 2.73143182,5.12099318 C2.80206818,4.75206136 2.86029545,4.450425 2.92425,4.11490227 C2.40211364,3.64240227 2.19259091,3.48776591 2.90611364,3.03722045 C3.59290909,2.60433409 4.30595455,2.18194773 5.06004545,1.89319773 C7.23306818,1.06178864 9.52254545,0.688561364 11.8139318,0.368311364 C12.4019318,0.286220455 13.0228636,0.396947727 13.6232727,0.465675 C13.9454318,0.502425 14.1444545,1.13624318 14.0055682,1.54669773 C14.3177045,1.71231136 14.6288864,1.87744773 15.0689318,2.11131136 C14.7968864,2.42487955 14.5415455,2.70122045 14.3081591,2.99474318 C14.14875,3.19519773 14.0552045,3.46056136 13.8685909,3.62378864 C13.46625,3.97601591 13.0347955,4.29912955 12.5923636,4.60124318 C12.0315682,4.98449318 11.4473864,5.33481136 10.8970909,5.78583409 C14.9157273,5.29853864 18.8828182,4.36594773 23.0780455,4.73487955 C22.9630227,4.89810682 22.8713864,4.98306136 22.8871364,5.01312955 C23.1143182,5.45603864 23.3658409,5.88701591 23.58825,6.33231136 C23.6622273,6.47978864 23.6908636,6.65876591 23.7023182,6.82628864 C23.7180682,7.06062955 23.7323864,7.30451591 23.6832273,7.53074318 C23.646,7.70399318 23.5314545,7.87437955 23.4130909,8.01326591 C23.1706364,8.29724318 22.9024091,8.55878864 22.6456364,8.83035682 C22.5945682,8.88428864 22.5573409,8.96924318 22.4957727,8.99262955 C21.5307273,9.36012955 20.5599545,9.71140227 19.5977727,10.0870159 C19.362,10.1786523 19.1543864,10.3428341 18.9338864,10.4740841 L19.0116818,10.692675 Z" id="Fill-4" fill="#EC0000" mask="url(#mask-2)"></path>
                </g>
            </g>
        </g>
    </g>
</svg>