<svg height="186" viewBox="0 0 186 186" width="186" xmlns="http://www.w3.org/2000/svg"><g fill="none" fill-rule="evenodd" stroke="#184b98" stroke-linecap="square" stroke-width="6" transform="translate(3 3)"><path d="m25 0h-21c-2.209139 0-4 1.790861-4 4v21"/><path d="m25 155h-21c-2.209139 0-4 1.790861-4 4v21" transform="matrix(1 0 0 -1 0 335)"/><path d="m180 155h-21c-2.209139 0-4 1.790861-4 4v21" transform="matrix(-1 0 0 -1 335 335)"/><path d="m180 0h-21c-2.209139 0-4 1.790861-4 4v21" transform="matrix(-1 0 0 1 335 0)"/></g></svg>