<svg height="179" viewBox="0 0 174 179" width="174" xmlns="http://www.w3.org/2000/svg"><g fill="none" fill-rule="evenodd"><ellipse cx="86.925957" cy="87.080414" fill="#194b98" fill-rule="nonzero" opacity=".17" rx="86.925957" ry="86.956966"/><path d="m38.489787 107.622207h96.87234v70.365517h-96.87234z" fill="#fff" fill-rule="nonzero" stroke="#231f20" stroke-width="1.271064"/><path d="m38.4897872 177.54331 11.9331915-25.146413h73.6353193l11.30383 25.146413" stroke="#e6e6e6" stroke-width="1.234043"/><path d="m50.4229787 107.622207v44.77469" stroke="#e6e6e6" stroke-width="1.234043"/><path d="m123.959574 107.622207v44.77469" stroke="#e6e6e6" stroke-width="1.234043"/><g fill-rule="nonzero"><path d="m38.6255319 107.622207h96.8723401v6.172414l-96.8723401 4.937931z" fill="#b4b4b5" opacity=".12"/><path d="m144.913617 95.4625517-18.411915-25.6895862c-.122966-.1705809-.320405-.2715862-.530638-.2715862h-78.0778725c-.239585.0088111-.4581854.1390876-.58.3456552l-18.3748936 25.6155172" fill="#194b98" stroke="#231f20" stroke-width="1.197021"/><path d="m29.0370213 95.6971034h115.7902127v11.9251036h-115.7902127z" fill="#1d4483" stroke="#231f20" stroke-width="1.234043"/><path d="m65.6634043 122.991517h42.7842557v39.626897h-42.7842557z" fill="#fff" stroke="#e6e6e6" stroke-width="1.234043"/><ellipse cx="99.74766" cy="131.657586" fill="#e6e6e6" rx="4.35617" ry="4.357724"/></g><path d="m97.4893617 132.237793 1.1106383 1.111035 3.405957-3.394828" stroke="#fff" stroke-linecap="round" stroke-width=".715745"/><path d="m38.489787 107.622207h96.87234v70.365517h-96.87234z" stroke="#231f20" stroke-width="1.271064"/></g></svg>