<svg height="188" viewBox="0 0 121 188" width="121" xmlns="http://www.w3.org/2000/svg"><g fill="none" fill-rule="evenodd" transform="translate(1)"><path d="m9.81934339 116.378032h96.95829661v70.434783h-96.95829661z" fill="#fff" fill-rule="nonzero" stroke="#231f20" stroke-width="1.219184"/><path d="m116.337604 104.206407-18.4282517-25.7148738c-.1230755-.1707488-.3206899-.2718536-.5311092-.2718536h-78.1595031c-.2397975.0088198-.4585919.1392245-.5805146.3459955l-18.39119789 25.6407319" fill="#194b98" fill-rule="nonzero" stroke="#231f20" stroke-width="1.148163"/><path d="m85.2738953 91.0338673h-53.9508075l1.0869211-2.3478261h51.7769654z" fill="#231f20" fill-rule="nonzero"/><path d="m9.81934339 186.367963 11.94377991-25.171167h73.6883053l11.3262114 25.171167" stroke="#e6e6e6" stroke-width="1.183673"/><path d="m21.7631233 116.378032v44.818764" stroke="#e6e6e6" stroke-width="1.183673"/><path d="m95.3649689 116.378032v44.818764" stroke="#e6e6e6" stroke-width="1.183673"/><path d="m.345839 104.44119h115.892955v11.936842h-115.892955z" fill="#1d4483" fill-rule="nonzero" stroke="#231f20" stroke-width="1.183673"/><path d="m9.81934339 116.378032h96.95829661v6.17849l-96.95829661 4.942792z" fill="#b4b4b5" fill-rule="nonzero" opacity=".12"/><path d="m9.81934339 116.378032h96.95829661v70.434783h-96.95829661z" stroke="#231f20" stroke-width="1.219184"/><g fill-rule="nonzero"><path d="m89.7944987 68.1240275 26.5925113-17.4974829-7.744313-1.7546911 11.350914-9.601373-7.373771-1.6805491-12.30197 12.7524027 5.607525 1.2727689z" fill="#194b98" opacity=".17"/><path d="m106.715883 36.2553776 5.903957 1.3345538-12.30197 12.7524027 5.607525 1.2727689-16.1308963 16.5089245 10.5851283-14.7789474-5.1134691-1.1615561z" fill="#194b98" opacity=".08"/><path d="m55.7541083 63.7372998 41.8835137-41.1858124-14.6363798-.4077803 17.1313578-21.43935927-13.9694057-.39542334-17.7118722 27.48192221 10.6221828.2965675z" fill="#194b98" opacity=".17"/><path d="m75.0222538 0 11.1409405.30892449-17.7118722 27.48192221 10.6221828.2965675-23.3193966 35.6498856 13.8952972-30.5340961-9.6711269-.2718536z" fill="#194b98" opacity=".08"/><path d="m37.7828571 64.6887872.7410826-26.4686499-4.8911447 4.4361556-1.1239751-12.3199085-4.6688199 4.238444 2.8408163 14.4700229 3.5324934-3.2251717z" fill="#194b98" opacity=".17"/><path d="m24.122236 37.9606407 3.717764-3.3858123 2.8408163 14.4700229 3.5324934-3.2251717 3.5695474 18.8691076-5.0270097-14.2599542-3.223709 2.9286041z" fill="#194b98" opacity=".08"/></g></g></svg>