<svg height="146" viewBox="0 0 144 146" width="144" xmlns="http://www.w3.org/2000/svg"><g fill="none" transform="translate(1 1)"><path d="m27.52 143.83h87.7c23.439955-18.64503 32.526232-50.0738124 22.651616-78.3503144-9.874616-28.2765019-36.550512-47.2165493-66.501616-47.2165493-29.9511037 0-56.6269997 18.9400474-66.50161606 47.2165493-9.8746164 28.276502-.78833867 59.7052844 22.65161606 78.3503144z" fill="#194b98" opacity=".17"/><path d="m142.1 128.53-22.45-31.32c-.148878-.2118438-.391079-.3385333-.65-.34h-95.24c-.2927494.0099502-.5603038.1682218-.71.42l-22.41 31.24" fill="#194b98" stroke="#231f20" stroke-width="1.46"/><path d="m104.25 112.48h-65.75l1.33-2.86h63.09z" fill="#231f20"/><path d="m.75 128.82h141.24v14.54h-141.24z" fill="#1d4483" stroke="#231f20" stroke-width="1.51"/><path d="m40.44.16h61.85v76.9h-61.85z" fill="#fff" stroke="#231f20" stroke-width="2.05"/><path d="m73.46 48.68c-4.7534897.9976021-9.5558955-1.4712231-11.5107998-5.9174826s-.5277169-9.6540743 3.4207998-12.4825174l-.36 2.46c-.0597354.4029152.2173729.7783523.62.84h.11c.3655351-.0008788.6756646-.2685247.73-.63l.56-3.8c.0597354-.4029152-.2173729-.7783523-.62-.84l-3.79-.56c-.3876389-.0313113-.7333708.2427756-.7913182.6273356s.1916652.7483564.5713182.8326644l1.62.24c-4.2378176 3.3980843-5.5911271 9.2596485-3.2719206 14.171609 2.3192066 4.9119605 7.7052445 7.5915084 13.0219206 6.478391.2827429-.0268149.5251932-.2130858.6239528-.4793735.0987596-.2662876.036402-.5656044-.1604792-.7703002s-.4935453-.2786512-.7634736-.1903263zm7.23-.8-1.77-.26c4.1371159-3.4549559 5.3901188-9.2831626 3.0384744-14.1331334s-7.7036941-7.4755326-12.9784744-6.3668666c-.2827429.0268149-.5251932.2130858-.6239528.4793735-.0987596.2662876-.036402.5656044.1604792.7703002s.4935453.2786512.7634736.1903263c4.6674881-.9777609 9.3939612 1.3860529 11.411401 5.7070942s.7950029 9.4623264-2.951401 12.4129058l.34-2.33c.059956-.269992-.0356496-.5508837-.2478665-.7282376-.2122168-.1773539-.5056209-.2215655-.760677-.1146226-.255056.1069429-.4291893.3471891-.4514565.6228602l-.56 3.79c-.0597354.4029152.2173729.7783523.62.84l3.79.56h.11c.3660241-.0261559.6575937-.3166016.6851631-.682522.0275693-.3659203-.2171901-.6967744-.5751631-.777478z" fill="#194b98"/></g></svg>