<?xml version="1.0" encoding="UTF-8"?>
<svg width="1400px" height="800px" viewBox="0 0 1400 800" version="1.1" xmlns="http://www.w3.org/2000/svg" xmlns:xlink="http://www.w3.org/1999/xlink">
    <title>Background/desktop/abstract</title>
    <defs>
        <rect id="path-1" x="0" y="0" width="1400" height="800"></rect>
        <polygon id="path-3" points="8.13514649e-14 0 1460 0 1460 1206 8.13514649e-14 1206"></polygon>
    </defs>
    <g id="Background/desktop/abstract" stroke="none" stroke-width="1" fill="none" fill-rule="evenodd">
        <mask id="mask-2" fill="white">
            <use xlink:href="#path-1"></use>
        </mask>
        <use id="Mask" fill="#D8D8D8" xlink:href="#path-1"></use>
        <g id="shapes-irma" mask="url(#mask-2)">
            <g transform="translate(653.117515, 717.833668) rotate(19.000000) translate(-653.117515, -717.833668) translate(-274.035133, -276.520353)">
                <path d="M1589.53804,1051.14584 L1380.35268,429.688832 C1363.94598,380.945527 1316.86975,348.197916 1263.21597,348.197916 C1248.54669,348.197916 1233.98045,350.62473 1219.93801,355.403598 L224.241648,694.358193 C157.286759,717.151266 120.271513,787.531745 141.727304,851.249987 L350.895498,1472.7185 C367.310781,1521.45893 414.387006,1554.19792 468.052242,1554.19792 C482.71866,1554.19792 497.284898,1551.7826 511.338784,1546.99223 L1507.0237,1208.04914 C1573.97859,1185.24744 1610.9967,1114.85546 1589.53804,1051.14584" id="Fill-1" fill="#D44454"></path>
                <g id="Group-5" stroke-width="1" fill="none" transform="translate(265.337536, 0.000000)">
                    <mask id="mask-4" fill="white">
                        <use xlink:href="#path-3"></use>
                    </mask>
                    <g id="Clip-4"></g>
                    <path d="M1453.90591,702.945533 L1244.72042,81.4919885 C1228.31371,32.7487299 1181.2346,-0.00172522152 1127.58365,-0.00172522152 C1112.91436,-0.00172522152 1098.34811,2.42508638 1084.30567,7.20394998 L88.6087416,346.161097 C21.6509528,368.954149 -15.3614512,439.331685 6.09435119,503.052742 L215.259801,1124.52066 C231.677955,1173.26105 278.754207,1206 332.416611,1206 C347.0859,1206 361.652146,1203.58469 375.70604,1198.79432 L1371.39152,859.851555 C1438.34644,837.047002 1475.36171,766.657964 1453.90591,702.945533" id="Fill-3" fill="#FFBB58" mask="url(#mask-4)"></path>
                </g>
                <path d="M1761.06925,1074.51468 L1646.58123,305.8325 C1637.60626,245.542632 1589.28946,197.419737 1526.35892,186.087286 C1509.15604,182.991044 1491.56086,182.738984 1474.08508,185.348139 L234.897739,370.189379 C151.567979,382.618629 93.3347091,456.850102 105.083018,535.66633 L219.54375,1304.35873 C228.532366,1364.6486 276.852574,1412.75787 339.789943,1424.09373 C356.992824,1427.18997 374.591409,1427.45225 392.080834,1424.83628 L1631.25112,1240.00185 C1714.58429,1227.56239 1772.81756,1153.32069 1761.06925,1074.51468" id="Fill-6" fill="#2BC194"></path>
                <g id="Group-10" stroke-width="1" fill="none" transform="translate(-0.000000, 275.006659)">
                    <path d="M1716.28839,134.912199 C1705.61133,67.6746959 1651.2571,14.4683088 1581.04305,2.51446767 C1561.84334,-0.753625752 1542.24465,-0.837325467 1522.80936,2.27097759 L144.655011,222.561019 C51.9773383,237.375868 -12.0546466,320.931011 1.91292856,408.83093 L137.986596,1266.09102 C148.675059,1333.32852 203.029292,1386.5235 273.258534,1398.48114 C292.45825,1401.74924 312.056932,1401.84435 331.507426,1398.72463 L1709.64657,1178.44601 C1802.32425,1163.61594 1866.36003,1080.04938 1852.39246,992.160877 L1716.28839,134.912199 Z" id="Fill-8" fill="#00B1E6"></path>
                </g>
                <path d="M1572.42119,1692.41864 L1476.08287,1045.59505 C1468.53069,994.862893 1427.87352,954.368884 1374.91931,944.832957 C1360.44358,942.22756 1345.63776,942.015459 1330.9324,944.210987 L288.192479,1099.74949 C218.072923,1110.20834 169.071328,1172.67195 178.957187,1238.9935 L275.272546,1885.82569 C282.836204,1936.55785 323.496247,1977.04039 376.456203,1986.57919 C390.931925,1989.18458 405.740619,1989.40528 420.457459,1987.20402 L1463.18303,1831.67126 C1533.30546,1821.20381 1582.30705,1758.73159 1572.42119,1692.41864" id="Fill-6" fill="#D44454"></path>
            </g>
        </g>
    </g>
</svg>