<?xml version="1.0" encoding="UTF-8"?>
<svg width="120px" height="120px" viewBox="0 0 120 120" version="1.1" xmlns="http://www.w3.org/2000/svg" xmlns:xlink="http://www.w3.org/1999/xlink">
    <title>Icon/Interface-Essential / Form-Validation / check-circle-1</title>
    <g id="Schetsen" stroke="none" stroke-width="1" fill="none" fill-rule="evenodd">
        <g id="Irma-stempas:-stemmen-goed" transform="translate(-423.000000, -314.000000)" fill="#029B17">
            <g id="Group-2" transform="translate(341.000000, 172.000000)">
                <g id="check-circle-1" transform="translate(82.000000, 142.000000)">
                    <path d="M60,-6.66910971e-15 C26.862915,-6.66910971e-15 0,26.862915 0,60 C0,93.137085 26.862915,120 60,120 C93.137085,120 120,93.137085 120,60 C119.961426,26.878906 93.121094,0.0385738115 60,-6.66910971e-15 Z M94.635,41 L60.41,87.445 C59.5937679,88.5279482 58.3766413,89.2375254 57.0321093,89.4142891 C55.6875774,89.5910527 54.3284053,89.2201777 53.26,88.385 L28.82,68.845 C26.6633281,67.1191102 26.3141102,63.9716719 28.04,61.815 C29.7658898,59.6583281 32.9133281,59.3091102 35.07,61.035 L55.45,77.34 L86.585,35.085 C87.6059599,33.5529501 89.3862554,32.7059133 91.2190577,32.8801876 C93.0518601,33.0544619 94.6406115,34.2218489 95.3545319,35.9188621 C96.0684522,37.6158753 95.792025,39.5679284 94.635,41 Z" id="Shape"></path>
                </g>
            </g>
        </g>
    </g>
</svg>