<?xml version="1.0" encoding="UTF-8"?>
<svg width="375px" height="614px" viewBox="0 0 375 614" version="1.1" xmlns="http://www.w3.org/2000/svg" xmlns:xlink="http://www.w3.org/1999/xlink">
    <title>Background/mobile</title>
    <defs>
        <rect id="path-1" x="0" y="0" width="374" height="614"></rect>
        <polygon id="path-3" points="4.22916177e-14 0 759 0 759 627 4.22916177e-14 627"></polygon>
        <polygon id="path-5" points="0 0 728 0 728 550 0 550"></polygon>
    </defs>
    <g id="Background/mobile" stroke="none" stroke-width="1" fill="none" fill-rule="evenodd">
        <g id="shapes-irma" transform="translate(0.000000, -0.000000)">
            <mask id="mask-2" fill="white">
                <use xlink:href="#path-1"></use>
            </mask>
            <use id="Mask" fill="#D8D8D8" xlink:href="#path-1"></use>
            <g mask="url(#mask-2)">
                <g transform="translate(181.426225, 303.441614) rotate(19.000000) translate(-181.426225, -303.441614) translate(-256.633174, -93.995005)">
                    <path d="M804.238503,533.336216 L695.490766,210.240407 C686.961532,184.898738 662.488344,167.873239 634.595724,167.873239 C626.969708,167.873239 619.39726,169.13494 612.097116,171.619476 L94.4714033,347.842139 C59.6640329,359.692269 40.4211759,396.283115 51.5752477,429.410261 L160.314056,752.51205 C168.847754,777.852224 193.320942,794.873239 221.219514,794.873239 C228.844042,794.873239 236.41649,793.617517 243.722586,791.127001 L761.342347,614.910318 C796.149717,603.055703 815.394062,566.458878 804.238503,533.336216" id="Fill-1" fill="#D44454"></path>
                    <g id="Group-5" stroke-width="1" fill="none" transform="translate(75.213418, 0.000000)">
                        <mask id="mask-4" fill="white">
                            <use xlink:href="#path-3"></use>
                        </mask>
                        <g id="Clip-4"></g>
                        <path d="M755.831906,365.461732 L647.084109,42.3677254 C638.55487,17.026081 614.080179,-0.000896943525 586.189032,-0.000896943525 C578.563012,-0.000896943525 570.990559,1.26080362 563.690412,3.74533718 L46.0644075,179.969327 C11.2555296,191.819445 -7.98585031,228.408762 3.16822777,261.537371 L111.905609,584.638852 C120.4408,609.979002 144.914002,627 172.811101,627 C180.437122,627 188.009574,625.744279 195.315674,623.253766 L712.935726,447.037251 C747.743116,435.181153 766.985984,398.585857 755.831906,365.461732" id="Fill-3" fill="#FFBB58" mask="url(#mask-4)"></path>
                    </g>
                    <path d="M725.340569,495.243743 L675.23912,158.846009 C671.311556,132.461405 650.167497,111.401423 622.62827,106.442012 C615.100065,105.087006 607.400188,104.976697 599.752559,106.11854 L57.4680437,187.010455 C21.001856,192.449857 -4.48178123,224.935714 0.659431744,259.427994 L50.7489382,595.8302 C54.6824736,622.214804 75.8280258,643.268824 103.370238,648.229725 C110.898443,649.584731 118.599813,649.699512 126.253413,648.554688 L668.530464,567.665754 C704.998145,562.22188 730.481782,529.731551 725.340569,495.243743" id="Fill-6" fill="#2BC194"></path>
                    <g id="Group-10" stroke-width="1" fill="none" transform="translate(148.118797, 151.465139)">
                        <mask id="mask-6" fill="white">
                            <use xlink:href="#path-5"></use>
                        </mask>
                        <g id="Clip-9"></g>
                        <path d="M727.24965,389.499273 L673.815167,52.96339 C669.623349,26.5675109 648.283866,5.67992137 620.717819,0.987121498 C613.180007,-0.295855934 605.48556,-0.328714495 597.855259,0.891532958 L56.7915864,87.3722772 C20.4063134,93.1882424 -4.73265667,125.990047 0.751016137,160.49751 L54.1735653,497.037874 C58.3698579,523.433753 79.7093409,544.316862 107.281355,549.011156 C114.819168,550.294133 122.513614,550.331472 130.149882,549.106744 L671.207588,462.630481 C707.592861,456.808541 732.733323,424.002256 727.24965,389.499273" id="Fill-8" fill="#00B1E6" mask="url(#mask-6)"></path>
                    </g>
                </g>
            </g>
        </g>
    </g>
</svg>